<svg width="2238" height="1511" viewBox="0 0 2238 1511" fill="none" xmlns="http://www.w3.org/2000/svg">
<path d="M706.5 138C562.5 246.5 517.5 290.5 447 470L389 455C351.248 446.106 328.081 441.074 259.5 431.5C214.725 423.486 181.144 421.555 98.4999 425C41.0692 427.399 2.48717 425.818 3.49994 455C5.93971 495.82 10.6532 518 21.9999 553.5C33.3467 589 40.8225 626.329 68.9999 679.5C92.6741 725.299 107.956 750.838 148 795.5C192.076 844.919 221.98 868.295 282.5 904C320.35 924.108 345.35 935.52 406.5 956.5C416.91 989.411 432.088 1038.1 438.5 1046.5C444.912 1054.9 438.5 1058 438.5 1058C429.305 1083.77 424.998 1098.66 423.5 1128.5C421.774 1162.71 423.05 1182.71 445 1225.5C468.882 1262.83 484.197 1283.26 539 1312.5C570.246 1327.3 594.539 1332.18 651.5 1334.5C719.673 1385.24 760.587 1412.61 851 1454.5C901.019 1475.62 933.693 1485.5 1004 1498C1073.9 1508.13 1113.69 1510.5 1186.5 1504.5C1243.33 1498.06 1278.23 1490.49 1347 1468.5L1440.5 1431C1479.74 1409.43 1510.05 1390.01 1590 1332.5C1648.26 1334.3 1682.81 1324.94 1749.5 1281C1787.59 1245.9 1801.84 1218.73 1815.5 1158C1815.2 1113.02 1812.18 1088.8 1797 1049C1813.8 1011.71 1821.4 990.681 1832.5 953C1935.99 919.017 1993.08 887.084 2092.5 795C2172.59 686.045 2182.45 658.594 2198.76 613.167L2199 612.5C2226.9 516.164 2246.26 455.379 2228 443C2190 407 2039.93 413.785 1793.5 470C1713.27 290.513 1645.85 206.764 1473.5 96.5C1349.78 28.5188 1272.5 2.5 1120 2.5C967.5 2.5 850.5 29.5 706.5 138Z" fill="#001E2C"/>
<path d="M2199 612.5C2226.9 516.164 2246.26 455.379 2228 443C2190 407 2039.93 413.785 1793.5 470C1713.27 290.513 1645.85 206.764 1473.5 96.5C1349.78 28.5188 1272.5 2.5 1120 2.5C967.5 2.5 850.5 29.5 706.5 138C562.5 246.5 517.5 290.5 447 470L389 455C351.248 446.106 328.081 441.074 259.5 431.5C214.725 423.486 181.144 421.555 98.4999 425C41.0692 427.399 2.48717 425.818 3.49994 455C5.93971 495.82 10.6532 518 21.9999 553.5C33.3467 589 40.8225 626.329 68.9999 679.5C92.6741 725.299 107.956 750.838 148 795.5C192.076 844.919 221.98 868.295 282.5 904C320.35 924.108 345.35 935.52 406.5 956.5C416.91 989.411 432.088 1038.1 438.5 1046.5C444.912 1054.9 438.5 1058 438.5 1058C429.305 1083.77 424.998 1098.66 423.5 1128.5C421.774 1162.71 423.05 1182.71 445 1225.5C468.882 1262.83 484.197 1283.26 539 1312.5C570.246 1327.3 594.539 1332.18 651.5 1334.5C719.673 1385.24 760.587 1412.61 851 1454.5C901.019 1475.62 933.693 1485.5 1004 1498C1073.9 1508.13 1113.69 1510.5 1186.5 1504.5C1243.33 1498.06 1278.23 1490.49 1347 1468.5L1440.5 1431C1479.74 1409.43 1510.05 1390.01 1590 1332.5C1648.26 1334.3 1682.81 1324.94 1749.5 1281C1787.59 1245.9 1801.84 1218.73 1815.5 1158C1815.2 1113.02 1812.18 1088.8 1797 1049C1813.8 1011.71 1821.4 990.681 1832.5 953C1935.99 919.017 1993.08 887.084 2092.5 795C2172.59 686.045 2182.45 658.594 2198.76 613.167M2199 612.5L2198.76 613.167M2199 612.5C2198.92 612.723 2198.84 612.945 2198.76 613.167" stroke="#001E2C" stroke-width="5"/>
<path d="M1146 298.5C1171.99 183.816 1283 101 1364 136.5C1445 172.001 1432 276.5 1336.5 270C1305.64 253.28 1301.18 245.196 1304.5 208.5H1324C1325.88 258.813 1369.7 257.322 1386.5 224C1393.07 184.087 1381.14 171.105 1346.5 156C1317.24 151.142 1300.35 153.666 1269 169.5C1229.65 193.989 1211.41 209.314 1193 242.5C1178.14 264.297 1171.14 276.535 1169 298.5H1146Z" fill="url(#paint0_linear_16_39)" stroke="url(#paint1_linear_16_39)" stroke-width="5" stroke-linecap="round"/>
<path d="M875.307 136.308C956.307 100.807 1067.31 183.623 1093.31 298.308H1070.31C1068.16 276.342 1061.17 264.105 1046.31 242.307C1027.89 209.121 1009.65 193.797 970.307 169.307C938.961 153.474 922.065 150.95 892.807 155.807C858.168 170.912 846.233 183.894 852.807 223.807C869.603 257.129 913.427 258.621 915.307 208.307H934.807C938.126 245.003 933.664 253.087 902.807 269.807C807.307 276.307 794.307 171.808 875.307 136.308Z" fill="url(#paint2_linear_16_39)" stroke="url(#paint3_linear_16_39)" stroke-width="5" stroke-linecap="round"/>
<path d="M1438.5 311C1473.16 323.174 1487.41 337.802 1502.5 379C1524.01 330.137 1538.41 315.458 1569.5 311C1528.19 295.324 1515.77 276.066 1502.5 233C1485.04 281.064 1470.43 296.737 1438.5 311Z" fill="url(#paint4_linear_16_39)"/>
<path d="M1610.5 459.5C1630.07 451.159 1634.74 443.465 1640.5 428.5C1647.93 447.838 1654.75 453.967 1670 459.5C1654.75 466.61 1648.48 473.564 1640.5 490C1636.23 474.113 1629.61 467.463 1610.5 459.5Z" fill="url(#paint5_linear_16_39)"/>
<path d="M1438.5 311C1473.16 323.174 1487.41 337.802 1502.5 379C1524.01 330.137 1538.41 315.458 1569.5 311C1528.19 295.324 1515.77 276.066 1502.5 233C1485.04 281.064 1470.43 296.737 1438.5 311Z" stroke="url(#paint6_linear_16_39)" stroke-width="5"/>
<path d="M1610.5 459.5C1630.07 451.159 1634.74 443.465 1640.5 428.5C1647.93 447.838 1654.75 453.967 1670 459.5C1654.75 466.61 1648.48 473.564 1640.5 490C1636.23 474.113 1629.61 467.463 1610.5 459.5Z" stroke="url(#paint7_linear_16_39)" stroke-width="5"/>
<path d="M799.5 309C764.672 324.137 749.914 339.926 733 382.5C722.605 343.172 707.097 328.559 671 309C708.569 290.434 721.061 272.494 733 231.5C747.015 273.147 758.192 293.333 799.5 309Z" fill="url(#paint8_linear_16_39)"/>
<path d="M613 428.5C620.208 443.171 625.562 451.061 643.5 463C627.615 468.707 620.632 474.436 613 491C605.413 473.531 597.287 468.499 580 463C598.002 452.362 604.371 444.33 613 428.5Z" fill="url(#paint9_linear_16_39)"/>
<path d="M799.5 309C764.672 324.137 749.914 339.926 733 382.5C722.605 343.172 707.097 328.559 671 309C708.569 290.434 721.061 272.494 733 231.5C747.015 273.147 758.192 293.333 799.5 309Z" stroke="#F9D800" stroke-width="5"/>
<path d="M613 428.5C620.208 443.171 625.562 451.061 643.5 463C627.615 468.707 620.632 474.436 613 491C605.413 473.531 597.287 468.499 580 463C598.002 452.362 604.371 444.33 613 428.5Z" stroke="#F9D800" stroke-width="5"/>
<circle cx="770" cy="511" r="25" fill="#FCE103"/>
<path d="M1307 1230C1299.2 1254.81 1291.47 1265.83 1269 1278C1296.42 1284.03 1303.63 1292.49 1307 1313.5C1314.78 1290.54 1322.52 1282.65 1342 1278C1321.84 1269.63 1315.69 1256.7 1307 1230Z" fill="#F6DD07"/>
<path d="M978.5 1278C953.343 1281.98 944.578 1296.12 937 1319.5C935.694 1300.25 928.253 1286.05 898 1278C920.601 1268.74 928.787 1258.96 937 1235C942.659 1256.99 950.837 1266.85 978.5 1278Z" fill="#F6DD07"/>
<path d="M1119.5 623.5C1084.91 702.196 1071.57 752.276 1062 855.5C1058.95 963.895 1058.33 1035.96 1059.85 1125.5C1078.35 1206.91 1089.82 1251.81 1117.5 1327C1146.87 1249.73 1156.49 1205.14 1173 1125.5V855.5C1167.59 761.032 1153.41 710.852 1119.5 623.5Z" fill="#FCF700"/>
<path d="M1062 1220.5C1069.33 1348.11 1082.36 1399.16 1118 1461.5C1159.53 1384.5 1170.81 1331.06 1173 1220.5V1125.5C1156.49 1205.14 1146.87 1249.73 1117.5 1327C1089.82 1251.81 1078.35 1206.91 1059.85 1125.5C1060.34 1154.69 1061.06 1185.73 1062 1220.5Z" fill="#F3B20B"/>
<path d="M826.5 1015C831.156 1054.77 826.399 1079.06 799 1127.5C803.368 1123.43 807.568 1119.52 811.606 1115.77C845.556 1084.2 868.054 1063.27 882.5 1044C921.991 991.678 931.083 973.565 944.152 947.53C946.279 943.29 948.513 938.841 951 934C975.218 878.635 986.403 851.318 989 829.5C919.709 920.427 882.335 966.715 826.5 1015Z" fill="#C4D8DE"/>
<path fill-rule="evenodd" clip-rule="evenodd" d="M996 811C905.392 869.28 858.71 893.975 783 923C668.793 968.494 634.943 985.84 601.5 1009.5C528.059 1070.09 510.961 1096.84 504 1137.5C502.665 1201.57 522.121 1226.43 593 1251C654.534 1256.61 689.126 1253.7 751 1232.5C803.773 1205.22 830.904 1184.86 874 1137.5C916.742 1088.05 928.507 1069.72 940.5 1044C966.686 998.705 972.4 980.819 982.5 949C996.035 893.92 996.751 864.026 996 811ZM989 829.5L996 811L972 829.5C857.301 943.923 788.351 1006.95 650.5 1115.77C641.465 1126.17 621.367 1145.94 596.217 1170.67L596.216 1170.67C587.952 1178.79 579.142 1187.46 570 1196.5C671.773 1151.85 727.723 1108.6 826.5 1015C831.156 1054.77 826.399 1079.06 799 1127.5C803.368 1123.43 807.568 1119.52 811.606 1115.77C845.556 1084.2 868.054 1063.27 882.5 1044C921.991 991.678 931.083 973.565 944.152 947.53C946.279 943.29 948.513 938.841 951 934C975.218 878.635 986.403 851.318 989 829.5Z" fill="#6D99A8"/>
<path d="M826.5 1015C882.335 966.715 919.709 920.427 989 829.5L996 811L972 829.5C857.301 943.923 788.351 1006.95 650.5 1115.77C641.465 1126.17 621.367 1145.94 596.217 1170.67L596.216 1170.67C587.952 1178.79 579.142 1187.46 570 1196.5C671.773 1151.85 727.723 1108.6 826.5 1015Z" fill="#F0FBF9"/>
<path d="M1237.2 811C1327.81 869.28 1374.49 893.975 1450.2 923C1564.41 968.494 1598.26 985.84 1631.7 1009.5C1705.14 1070.09 1722.24 1096.84 1729.2 1137.5C1730.54 1201.57 1711.08 1226.43 1640.2 1251C1578.67 1256.61 1544.07 1253.7 1482.2 1232.5C1429.43 1205.22 1402.3 1184.86 1359.2 1137.5C1316.46 1088.05 1304.69 1069.72 1292.7 1044C1266.52 998.705 1260.8 980.819 1250.7 949C1237.17 893.92 1236.45 864.026 1237.2 811L1244.2 829.5C1246.8 851.318 1257.98 878.635 1282.2 934C1284.69 938.841 1286.92 943.29 1289.05 947.53C1302.12 973.565 1311.21 991.678 1350.7 1044C1365.15 1063.27 1387.65 1084.2 1421.6 1115.77C1425.63 1119.52 1429.83 1123.43 1434.2 1127.5C1406.8 1079.06 1402.05 1054.77 1406.7 1015C1505.48 1108.6 1561.43 1151.85 1663.2 1196.5C1654.06 1187.46 1645.25 1178.79 1636.99 1170.67L1636.98 1170.67L1636.98 1170.67L1636.98 1170.66C1635.41 1169.12 1633.86 1167.59 1632.33 1166.09C1609.36 1143.5 1591.17 1125.52 1582.7 1115.77C1444.85 1006.95 1375.9 943.923 1261.2 829.5L1237.2 811Z" fill="#6997A8"/>
<path fill-rule="evenodd" clip-rule="evenodd" d="M1636.98 1170.67L1636.98 1170.66C1635.41 1169.12 1633.86 1167.59 1632.33 1166.09C1633.86 1167.59 1635.41 1169.12 1636.98 1170.67Z" fill="#D9D9D9"/>
<path d="M1406.7 1015C1350.87 966.715 1313.49 920.427 1244.2 829.5L1237.2 811L1261.2 829.5C1375.9 943.923 1444.85 1006.95 1582.7 1115.77C1591.17 1125.52 1609.36 1143.5 1632.33 1166.09C1633.86 1167.59 1635.41 1169.12 1636.98 1170.66L1636.98 1170.67L1636.98 1170.67L1636.99 1170.67C1645.25 1178.79 1654.06 1187.46 1663.2 1196.5C1561.43 1151.85 1505.48 1108.6 1406.7 1015Z" fill="#F7FEFE"/>
<path d="M1406.7 1015C1402.05 1054.77 1406.8 1079.06 1434.2 1127.5C1429.83 1123.43 1425.63 1119.52 1421.6 1115.77C1387.65 1084.2 1365.15 1063.27 1350.7 1044C1311.21 991.678 1302.12 973.565 1289.05 947.53C1286.92 943.29 1284.69 938.841 1282.2 934C1257.98 878.635 1246.8 851.318 1244.2 829.5C1313.49 920.427 1350.87 966.715 1406.7 1015Z" fill="#C4D8DE"/>
<path d="M279 804.5C383.656 874.218 461.268 888.887 623 885C740.232 866.179 841.53 825.312 878 804.5C964.061 757.266 991.52 732.189 1026 695.466L985.5 700C973.193 714.113 914.481 728.658 709 767.5C645.609 778.328 607.727 781.96 532 780C445.469 765.36 393.702 753.391 340 734.398C322.313 728.142 304.417 721.125 285 713L658.5 708.5C545.069 670.43 480.346 645.554 363.5 597L247.5 545C201.243 534.402 178.65 534.512 101.015 530.5C124.381 649.143 171.403 711.302 279 804.5Z" fill="#6D99A8"/>
<path d="M432 584.5C373.683 569.71 321.649 558.113 247.5 545L363.5 597C480.346 645.554 545.069 670.43 658.5 708.5C769.519 711.858 809.743 714.728 822.5 722.5C786.39 730.819 766.504 733.836 732 734.398H340C393.702 753.391 445.469 765.36 532 780C607.727 781.96 645.609 778.328 709 767.5C914.481 728.658 973.193 714.113 985.5 700C926.219 697.79 891.836 695.217 826.5 686C746.531 669.717 698.371 654.173 613.5 632.5C545.785 611.159 508.35 604.908 432 584.5Z" fill="#C0D8DE"/>
<path d="M658.5 708.5L285 713L340 734.398H732C766.504 733.836 786.39 730.819 822.5 722.5C809.743 714.728 769.519 711.858 658.5 708.5Z" fill="#F8FBFD"/>
<path d="M359.5 530.5C245.108 502.415 105.5 496.5 98.5 517C99.3068 521.581 100.144 526.08 101.015 530.5C178.65 534.512 201.243 534.402 247.5 545C321.649 558.113 373.683 569.71 432 584.5C508.35 604.908 545.785 611.159 613.5 632.5C698.371 654.173 746.531 669.717 826.5 686C891.836 695.217 926.219 697.79 985.5 700L1026 695.466C1029.81 691.413 1033.7 687.219 1037.76 682.837L1039 681.5C962.743 674.779 920.275 670.327 847.5 655L681 614.5L359.5 530.5Z" fill="#F8FBFD"/>
<path d="M1879.5 530.692C1993.89 502.607 2133.5 496.693 2140.5 517.192C2139.69 521.774 2138.86 526.272 2137.99 530.692C2060.35 534.705 2037.76 534.595 1991.5 545.193C1917.35 558.306 1865.32 569.903 1807 584.693C1730.65 605.1 1693.22 611.351 1625.5 632.693C1540.63 654.366 1492.47 669.909 1412.5 686.193C1347.16 695.409 1312.78 697.983 1253.5 700.193L1213 695.658C1209.19 691.606 1205.3 687.411 1201.24 683.029L1200 681.693C1276.26 674.972 1318.73 670.52 1391.5 655.193L1558 614.693L1879.5 530.692Z" fill="#F9FCFE"/>
<path d="M1807 584.693C1865.32 569.903 1917.35 558.306 1991.5 545.193L1875.5 597.193C1758.65 645.746 1693.93 670.622 1580.5 708.693C1469.48 712.051 1429.26 714.921 1416.5 722.693C1452.61 731.011 1472.5 734.028 1507 734.59H1899C1845.3 753.583 1793.53 765.553 1707 780.193C1631.27 782.153 1593.39 778.521 1530 767.693C1324.52 728.851 1265.81 714.306 1253.5 700.193C1312.78 697.983 1347.16 695.409 1412.5 686.193C1492.47 669.909 1540.63 654.366 1625.5 632.693C1693.22 611.351 1730.65 605.1 1807 584.693Z" fill="#C2D4DD"/>
<path d="M1580.5 708.693L1954 713.193L1899 734.59H1507C1472.5 734.028 1452.61 731.011 1416.5 722.693C1429.26 714.921 1469.48 712.051 1580.5 708.693Z" fill="#FAFCFD"/>
<path d="M1960 804.693C1855.34 874.411 1777.73 889.08 1616 885.193C1498.77 866.371 1397.47 825.504 1361 804.693C1274.94 757.459 1247.48 732.382 1213 695.658L1253.5 700.193C1265.81 714.306 1324.52 728.851 1530 767.693C1593.39 778.521 1631.27 782.153 1707 780.193C1793.53 765.553 1845.3 753.583 1899 734.59C1916.69 728.335 1934.58 721.318 1954 713.193L1580.5 708.693C1693.93 670.622 1758.65 645.746 1875.5 597.193L1991.5 545.193C2037.76 534.595 2060.35 534.705 2137.99 530.692C2114.62 649.335 2067.6 711.494 1960 804.693Z" fill="#6B95A4"/>
<ellipse cx="1120" cy="462.5" rx="116" ry="115.5" fill="#F6AD0B"/>
<ellipse cx="102.5" cy="92" rx="102.5" ry="92" transform="matrix(-1 0 0 1 1223 347)" fill="#FDF600"/>
<defs>
<linearGradient id="paint0_linear_16_39" x1="1146" y1="299" x2="1417" y2="128" gradientUnits="userSpaceOnUse">
<stop stop-color="#92ABB7"/>
<stop offset="1" stop-color="#ACC1CB"/>
</linearGradient>
<linearGradient id="paint1_linear_16_39" x1="1146" y1="299" x2="1417" y2="128" gradientUnits="userSpaceOnUse">
<stop stop-color="#92ABB7"/>
<stop offset="1" stop-color="#ACC1CB"/>
</linearGradient>
<linearGradient id="paint2_linear_16_39" x1="1093.31" y1="298.807" x2="822.307" y2="127.807" gradientUnits="userSpaceOnUse">
<stop stop-color="#92ABB7"/>
<stop offset="1" stop-color="#ACC1CB"/>
</linearGradient>
<linearGradient id="paint3_linear_16_39" x1="1093.31" y1="298.807" x2="822.307" y2="127.807" gradientUnits="userSpaceOnUse">
<stop stop-color="#92ABB7"/>
<stop offset="1" stop-color="#ACC1CB"/>
</linearGradient>
<linearGradient id="paint4_linear_16_39" x1="1603.56" y1="258.254" x2="1605.42" y2="361.257" gradientUnits="userSpaceOnUse">
<stop stop-color="#F9D800"/>
<stop offset="0.385" stop-color="#F4D401"/>
</linearGradient>
<linearGradient id="paint5_linear_16_39" x1="1603.56" y1="258.254" x2="1605.42" y2="361.257" gradientUnits="userSpaceOnUse">
<stop stop-color="#F9D800"/>
<stop offset="0.385" stop-color="#F4D401"/>
</linearGradient>
<linearGradient id="paint6_linear_16_39" x1="1603.56" y1="258.254" x2="1605.42" y2="361.257" gradientUnits="userSpaceOnUse">
<stop stop-color="#F9D800"/>
<stop offset="0.385" stop-color="#F4D401"/>
</linearGradient>
<linearGradient id="paint7_linear_16_39" x1="1603.56" y1="258.254" x2="1605.42" y2="361.257" gradientUnits="userSpaceOnUse">
<stop stop-color="#F9D800"/>
<stop offset="0.385" stop-color="#F4D401"/>
</linearGradient>
<linearGradient id="paint8_linear_16_39" x1="736.5" y1="257" x2="738.5" y2="361" gradientUnits="userSpaceOnUse">
<stop stop-color="#F9D800"/>
<stop offset="0.385" stop-color="#F4D401"/>
</linearGradient>
<linearGradient id="paint9_linear_16_39" x1="736.5" y1="257" x2="738.5" y2="361" gradientUnits="userSpaceOnUse">
<stop stop-color="#F9D800"/>
<stop offset="0.385" stop-color="#F4D401"/>
</linearGradient>
</defs>
</svg>
