<svg width="4447" height="1406" viewBox="0 0 4447 1406" fill="none" xmlns="http://www.w3.org/2000/svg">
<path d="M656.862 129.025C522.931 229.939 481.077 270.862 415.507 437.811L361.562 423.859C326.45 415.587 304.904 410.907 241.118 402.003C199.474 394.549 168.241 392.753 91.3753 395.957C37.9604 398.189 2.07615 396.718 3.01811 423.859C5.28728 461.825 9.67115 482.454 20.2245 515.472C30.7779 548.49 37.7309 583.208 63.9381 632.662C85.9569 675.258 100.17 699.011 137.414 740.55C178.408 786.514 206.222 808.255 262.509 841.464C297.712 860.166 320.964 870.78 377.839 890.293C387.521 920.902 401.638 966.185 407.601 973.999C413.565 981.814 407.601 984.695 407.601 984.695C399.049 1008.66 395.043 1022.52 393.65 1050.27C392.044 1082.09 393.232 1100.69 413.647 1140.48C435.859 1175.21 450.103 1194.2 501.074 1221.4C530.135 1235.17 552.729 1239.71 605.707 1241.86C669.114 1289.05 707.167 1314.51 791.258 1353.47C837.779 1373.12 868.168 1382.3 933.559 1393.93C998.567 1403.35 1035.58 1405.55 1103.3 1399.97C1156.15 1393.99 1188.62 1386.94 1252.58 1366.49L1339.54 1331.61C1376.04 1311.55 1404.22 1293.49 1478.58 1240C1532.77 1241.67 1564.9 1232.97 1626.93 1192.1C1662.36 1159.46 1675.62 1134.18 1688.32 1077.7C1688.03 1035.87 1685.23 1013.34 1671.11 976.325C1686.74 941.64 1693.81 922.084 1704.13 887.037C1800.38 855.43 1853.48 825.731 1945.95 740.085C2020.44 638.749 2029.61 613.218 2044.78 570.966L2045 570.346C2070.95 480.747 2088.96 424.212 2071.97 412.699C2036.63 379.216 1897.06 385.526 1667.85 437.811C1593.23 270.874 1530.53 192.981 1370.23 90.4272C1255.16 27.1995 1183.28 3 1041.45 3C899.611 3 790.792 28.1121 656.862 129.025Z" fill="#001E2C"/>
<path d="M2045 570.346C2070.95 480.747 2088.96 424.212 2071.97 412.699C2036.63 379.216 1897.06 385.526 1667.85 437.811C1593.23 270.874 1530.53 192.981 1370.23 90.4272C1255.16 27.1995 1183.28 3 1041.45 3C899.611 3 790.792 28.1121 656.862 129.025C522.931 229.939 481.077 270.862 415.507 437.811L361.563 423.859C326.45 415.587 304.904 410.907 241.118 402.003C199.474 394.549 168.241 392.753 91.3753 395.957C37.9604 398.189 2.07615 396.718 3.01811 423.859C5.28728 461.825 9.67115 482.454 20.2245 515.472C30.7779 548.49 37.7309 583.208 63.9381 632.662C85.9569 675.258 100.17 699.011 137.414 740.55C178.408 786.514 206.222 808.255 262.509 841.464C297.712 860.166 320.964 870.78 377.839 890.293C387.521 920.902 401.638 966.185 407.601 973.999C413.565 981.814 407.601 984.695 407.601 984.695C399.049 1008.66 395.043 1022.52 393.65 1050.27C392.044 1082.09 393.232 1100.69 413.647 1140.48C435.859 1175.21 450.103 1194.2 501.074 1221.4C530.135 1235.17 552.729 1239.71 605.707 1241.86C669.114 1289.05 707.167 1314.51 791.258 1353.47C837.779 1373.12 868.168 1382.3 933.559 1393.93C998.567 1403.35 1035.58 1405.55 1103.3 1399.97C1156.15 1393.99 1188.62 1386.94 1252.58 1366.49L1339.54 1331.61C1376.04 1311.55 1404.22 1293.49 1478.58 1240C1532.77 1241.67 1564.9 1232.97 1626.93 1192.1C1662.36 1159.46 1675.62 1134.18 1688.32 1077.7C1688.03 1035.87 1685.23 1013.34 1671.11 976.325C1686.74 941.64 1693.81 922.084 1704.13 887.037C1800.38 855.43 1853.48 825.731 1945.95 740.085C2020.44 638.749 2029.61 613.218 2044.78 570.966M2045 570.346L2044.78 570.966M2045 570.346C2044.93 570.553 2044.85 570.76 2044.78 570.966" stroke="#001E2C" stroke-width="5"/>
<path d="M1065.63 278.303C1089.81 171.637 1193.05 94.6126 1268.39 127.631C1343.72 160.649 1331.63 257.841 1242.81 251.796C1214.11 236.244 1209.96 228.726 1213.05 194.596H1231.18C1232.93 241.391 1273.69 240.004 1289.31 209.012C1295.43 171.89 1284.33 159.815 1252.11 145.767C1224.9 141.249 1209.18 143.596 1180.03 158.323C1143.43 181.1 1126.47 195.352 1109.34 226.218C1095.52 246.492 1089.02 257.873 1087.02 278.303H1065.63Z" fill="url(#paint0_linear_17_24)" stroke="url(#paint1_linear_17_24)" stroke-width="5" stroke-linecap="round"/>
<path d="M813.865 127.451C889.201 94.4334 992.444 171.458 1016.62 278.124H995.229C993.235 257.694 986.728 246.312 972.908 226.039C955.781 195.173 938.819 180.921 902.222 158.144C873.068 143.417 857.353 141.07 830.141 145.588C797.925 159.636 786.824 171.71 792.938 208.833C808.56 239.825 849.319 241.212 851.068 194.417H869.204C872.291 228.547 868.141 236.065 839.442 251.616C750.619 257.662 738.528 160.47 813.865 127.451Z" fill="url(#paint2_linear_17_24)" stroke="url(#paint3_linear_17_24)" stroke-width="5" stroke-linecap="round"/>
<path d="M1337.68 289.929C1369.92 301.251 1383.17 314.856 1397.2 353.174C1417.2 307.727 1430.6 294.075 1459.52 289.929C1421.1 275.349 1409.54 257.437 1397.2 217.383C1380.96 262.086 1367.37 276.663 1337.68 289.929Z" fill="url(#paint4_linear_17_24)"/>
<path d="M1497.65 428.045C1515.85 420.287 1520.19 413.131 1525.55 399.213C1532.46 417.198 1538.8 422.899 1552.99 428.045C1538.81 434.658 1532.97 441.126 1525.55 456.412C1521.58 441.636 1515.42 435.452 1497.65 428.045Z" fill="url(#paint5_linear_17_24)"/>
<path d="M1337.68 289.929C1369.92 301.251 1383.17 314.856 1397.2 353.174C1417.2 307.727 1430.6 294.075 1459.52 289.929C1421.1 275.349 1409.54 257.437 1397.2 217.383C1380.96 262.086 1367.37 276.663 1337.68 289.929Z" stroke="url(#paint6_linear_17_24)" stroke-width="5"/>
<path d="M1497.65 428.045C1515.85 420.287 1520.19 413.131 1525.55 399.213C1532.46 417.198 1538.8 422.899 1552.99 428.045C1538.81 434.658 1532.97 441.126 1525.55 456.412C1521.58 441.636 1515.42 435.452 1497.65 428.045Z" stroke="url(#paint7_linear_17_24)" stroke-width="5"/>
<path d="M743.359 288.069C710.966 302.147 697.24 316.832 681.509 356.429C671.841 319.852 657.417 306.26 623.844 288.069C658.786 270.801 670.405 254.115 681.509 215.988C694.544 254.723 704.939 273.497 743.359 288.069Z" fill="url(#paint8_linear_17_24)"/>
<path d="M569.9 399.213C576.604 412.857 581.584 420.196 598.267 431.3C583.493 436.608 576.998 441.936 569.9 457.343C562.843 441.095 555.285 436.415 539.207 431.3C555.95 421.406 561.874 413.936 569.9 399.213Z" fill="url(#paint9_linear_17_24)"/>
<path d="M743.359 288.069C710.966 302.147 697.24 316.832 681.509 356.429C671.841 319.852 657.417 306.26 623.844 288.069C658.786 270.801 670.405 254.115 681.509 215.988C694.544 254.723 704.939 273.497 743.359 288.069Z" stroke="#F9D800" stroke-width="5"/>
<path d="M569.9 399.213C576.604 412.857 581.584 420.196 598.267 431.3C583.493 436.608 576.998 441.936 569.9 457.343C562.843 441.095 555.285 436.415 539.207 431.3C555.95 421.406 561.874 413.936 569.9 399.213Z" stroke="#F9D800" stroke-width="5"/>
<circle cx="715.922" cy="475.944" r="23.2519" fill="#FCE103"/>
<path d="M1215.37 1144.67C1208.12 1167.74 1200.93 1177.99 1180.03 1189.31C1205.54 1194.92 1212.24 1202.78 1215.37 1222.33C1222.61 1200.98 1229.81 1193.64 1247.93 1189.31C1229.18 1181.53 1223.46 1169.5 1215.37 1144.67Z" fill="#F6DD07"/>
<path d="M909.844 1189.31C886.446 1193.01 878.294 1206.17 871.246 1227.91C870.031 1210 863.11 1196.8 834.973 1189.31C855.993 1180.7 863.607 1171.6 871.246 1149.32C876.509 1169.77 884.115 1178.94 909.844 1189.31Z" fill="#F6DD07"/>
<path d="M1040.98 580.577C1008.81 653.77 996.402 700.348 987.503 796.355C984.666 897.171 984.088 964.194 985.499 1047.48C1002.71 1123.19 1013.38 1164.95 1039.12 1234.89C1066.44 1163.02 1075.38 1121.55 1090.74 1047.48V796.355C1085.71 708.492 1072.52 661.821 1040.98 580.577Z" fill="#FCF700"/>
<path d="M987.503 1135.83C994.316 1254.52 1006.44 1302 1039.59 1359.98C1078.21 1288.36 1088.71 1238.66 1090.74 1135.83V1047.48C1075.38 1121.55 1066.44 1163.02 1039.12 1234.89C1013.38 1164.95 1002.71 1123.19 985.499 1047.48C985.959 1074.62 986.63 1103.5 987.503 1135.83Z" fill="#F3B20B"/>
<path d="M768.472 944.702C772.803 981.695 768.379 1004.28 742.895 1049.34C746.958 1045.55 750.864 1041.92 754.62 1038.42C786.196 1009.06 807.121 989.6 820.557 971.674C857.287 923.011 865.743 906.164 877.897 881.95C879.876 878.007 881.954 873.869 884.267 869.366C906.792 817.873 917.194 792.465 919.61 772.173C855.164 856.743 820.404 899.793 768.472 944.702Z" fill="#C4D8DE"/>
<path fill-rule="evenodd" clip-rule="evenodd" d="M926.12 754.967C841.848 809.171 798.43 832.139 728.014 859.135C621.793 901.448 590.31 917.581 559.205 939.587C490.9 995.939 474.997 1020.82 468.523 1058.64C467.281 1118.22 485.376 1141.35 551.3 1164.2C608.531 1169.42 640.705 1166.71 698.252 1146.99C747.335 1121.62 772.569 1102.69 812.651 1058.64C852.404 1012.64 863.346 995.6 874.501 971.674C898.856 929.547 904.171 912.911 913.564 883.317C926.153 832.088 926.819 804.285 926.12 754.967ZM919.61 772.173L926.12 754.967L903.798 772.173C797.12 878.595 732.991 937.218 604.779 1038.42C596.376 1048.1 577.684 1066.48 554.292 1089.48L554.291 1089.48C546.604 1097.04 538.411 1105.1 529.908 1113.51C624.565 1071.99 676.602 1031.76 768.472 944.702C772.803 981.695 768.379 1004.28 742.895 1049.34C746.958 1045.55 750.864 1041.92 754.62 1038.42C786.196 1009.06 807.121 989.6 820.557 971.674C857.287 923.011 865.743 906.164 877.897 881.95C879.876 878.007 881.954 873.869 884.267 869.366C906.792 817.873 917.194 792.465 919.61 772.173Z" fill="#6D99A8"/>
<path d="M768.472 944.702C820.404 899.793 855.164 856.743 919.61 772.173L926.12 754.967L903.798 772.173C797.12 878.595 732.991 937.218 604.779 1038.42C596.376 1048.1 577.684 1066.48 554.292 1089.48L554.291 1089.48C546.604 1097.04 538.411 1105.1 529.908 1113.51C624.565 1071.99 676.602 1031.76 768.472 944.702Z" fill="#F0FBF9"/>
<path d="M1150.46 754.967C1234.73 809.171 1278.15 832.139 1348.56 859.135C1454.78 901.448 1486.27 917.581 1517.37 939.587C1585.68 995.939 1601.58 1020.82 1608.05 1058.64C1609.29 1118.22 1591.2 1141.35 1525.28 1164.2C1468.04 1169.42 1435.87 1166.71 1378.32 1146.99C1329.24 1121.62 1304.01 1102.69 1263.92 1058.64C1224.17 1012.64 1213.23 995.6 1202.07 971.674C1177.72 929.547 1172.4 912.911 1163.01 883.317C1150.42 832.088 1149.76 804.285 1150.46 754.967L1156.97 772.173C1159.38 792.465 1169.78 817.873 1192.31 869.366C1194.62 873.869 1196.7 878.007 1198.68 881.95C1210.83 906.164 1219.29 923.011 1256.02 971.674C1269.45 989.6 1290.38 1009.06 1321.96 1038.42C1325.71 1041.92 1329.62 1045.55 1333.68 1049.34C1308.2 1004.28 1303.77 981.695 1308.1 944.702C1399.97 1031.76 1452.01 1071.99 1546.67 1113.51C1538.16 1105.1 1529.97 1097.04 1522.28 1089.48L1522.28 1089.48L1522.28 1089.48L1522.28 1089.48C1520.82 1088.04 1519.38 1086.62 1517.95 1085.22C1496.59 1064.22 1479.67 1047.5 1471.8 1038.42C1343.58 937.218 1279.46 878.595 1172.78 772.173L1150.46 754.967Z" fill="#6997A8"/>
<path fill-rule="evenodd" clip-rule="evenodd" d="M1522.28 1089.48L1522.28 1089.48C1520.82 1088.04 1519.38 1086.62 1517.95 1085.22C1519.38 1086.63 1520.82 1088.04 1522.28 1089.48Z" fill="#D9D9D9"/>
<path d="M1308.1 944.702C1256.17 899.793 1221.41 856.743 1156.97 772.173L1150.46 754.967L1172.78 772.173C1279.46 878.595 1343.58 937.218 1471.8 1038.42C1479.67 1047.5 1496.59 1064.22 1517.95 1085.22C1519.38 1086.62 1520.82 1088.04 1522.28 1089.48L1522.28 1089.48L1522.28 1089.48L1522.28 1089.48C1529.97 1097.04 1538.16 1105.1 1546.67 1113.51C1452.01 1071.99 1399.97 1031.76 1308.1 944.702Z" fill="#F7FEFE"/>
<path d="M1308.1 944.702C1303.77 981.695 1308.2 1004.28 1333.68 1049.34C1329.62 1045.55 1325.71 1041.92 1321.96 1038.42C1290.38 1009.06 1269.45 989.6 1256.02 971.674C1219.29 923.011 1210.83 906.164 1198.68 881.95C1196.7 878.007 1194.62 873.869 1192.31 869.366C1169.78 817.873 1159.38 792.465 1156.97 772.173C1221.41 856.743 1256.17 899.793 1308.1 944.702Z" fill="#C4D8DE"/>
<path d="M259.255 748.921C356.593 813.764 428.778 827.408 579.201 823.792C688.236 806.287 782.45 768.277 816.37 748.921C896.413 704.99 921.952 681.667 954.022 647.511L916.354 651.728C904.907 664.855 850.3 678.383 659.187 714.508C600.229 724.58 564.996 727.957 494.564 726.134C414.084 712.518 365.936 701.385 315.989 683.72C299.54 677.903 282.895 671.376 264.835 663.819L612.219 659.634C506.719 624.225 446.522 601.089 337.846 555.93L229.957 507.566C186.934 497.71 165.922 497.812 93.7151 494.08C115.448 604.427 159.181 662.239 259.255 748.921Z" fill="#6D99A8"/>
<path d="M401.556 544.304C347.317 530.549 298.922 519.763 229.957 507.566L337.846 555.93C446.522 601.089 506.719 624.225 612.219 659.634C715.475 662.757 752.886 665.426 764.751 672.655C731.166 680.392 712.67 683.198 680.579 683.72H315.989C365.936 701.385 414.084 712.518 494.564 726.134C564.996 727.957 600.229 724.58 659.187 714.508C850.3 678.383 904.907 664.855 916.354 651.728C861.217 649.673 829.239 647.279 768.471 638.707C694.094 623.562 649.302 609.106 570.365 588.948C507.385 569.099 472.568 563.285 401.556 544.304Z" fill="#C0D8DE"/>
<path d="M612.219 659.634L264.835 663.819L315.989 683.72H680.579C712.67 683.198 731.166 680.392 764.751 672.655C752.886 665.426 715.475 662.757 612.219 659.634Z" fill="#F8FBFD"/>
<path d="M334.126 494.08C227.732 467.959 97.8865 462.458 91.376 481.524C92.1263 485.785 92.9054 489.969 93.7151 494.08C165.922 497.812 186.934 497.71 229.957 507.566C298.922 519.763 347.317 530.549 401.556 544.304C472.568 563.285 507.385 569.099 570.365 588.948C649.302 609.106 694.094 623.562 768.471 638.707C829.239 647.279 861.217 649.673 916.354 651.728L954.022 647.511C957.561 643.742 961.179 639.84 964.959 635.765L966.113 634.522C895.188 628.271 855.689 624.13 788.003 609.875L633.145 572.207L334.126 494.08Z" fill="#F8FBFD"/>
<path d="M1747.84 494.259C1854.23 468.138 1984.08 462.637 1990.59 481.703C1989.84 485.964 1989.06 490.148 1988.25 494.259C1916.04 497.991 1895.03 497.889 1852.01 507.745C1783.04 519.942 1734.65 530.728 1680.41 544.483C1609.4 563.464 1574.58 569.278 1511.6 589.127C1432.66 609.285 1387.87 623.742 1313.49 638.886C1252.73 647.458 1220.75 649.852 1165.61 651.907L1127.94 647.69C1124.41 643.921 1120.79 640.02 1117.01 635.944L1115.85 634.701C1186.78 628.45 1226.28 624.309 1293.96 610.054L1448.82 572.386L1747.84 494.259Z" fill="#F9FCFE"/>
<path d="M1680.41 544.483C1734.65 530.728 1783.04 519.942 1852.01 507.745L1744.12 556.109C1635.44 601.268 1575.25 624.405 1469.75 659.813C1366.49 662.936 1329.08 665.605 1317.21 672.834C1350.8 680.571 1369.3 683.377 1401.39 683.9H1765.98C1716.03 701.565 1667.88 712.697 1587.4 726.313C1516.97 728.136 1481.74 724.759 1422.78 714.687C1231.67 678.562 1177.06 665.034 1165.61 651.907C1220.75 649.852 1252.73 647.458 1313.49 638.886C1387.87 623.742 1432.66 609.285 1511.6 589.127C1574.58 569.278 1609.4 563.464 1680.41 544.483Z" fill="#C2D4DD"/>
<path d="M1469.75 659.813L1817.13 663.998L1765.98 683.9H1401.39C1369.3 683.377 1350.8 680.571 1317.21 672.834C1329.08 665.605 1366.49 662.936 1469.75 659.813Z" fill="#FAFCFD"/>
<path d="M1822.71 749.1C1725.37 813.944 1653.19 827.587 1502.76 823.971C1393.73 806.466 1299.52 768.457 1265.6 749.1C1185.55 705.169 1160.01 681.846 1127.94 647.69L1165.61 651.907C1177.06 665.034 1231.67 678.562 1422.78 714.687C1481.74 724.759 1516.97 728.136 1587.4 726.313C1667.88 712.697 1716.03 701.565 1765.98 683.9C1782.43 678.082 1799.07 671.555 1817.13 663.998L1469.75 659.813C1575.25 624.405 1635.44 601.268 1744.12 556.109L1852.01 507.745C1895.03 497.889 1916.04 497.991 1988.25 494.259C1966.52 604.606 1922.78 662.419 1822.71 749.1Z" fill="#6B95A4"/>
<ellipse cx="1041.45" cy="430.835" rx="107.889" ry="107.424" fill="#F6AD0B"/>
<ellipse cx="95.3328" cy="85.567" rx="95.3328" ry="85.567" transform="matrix(-1 0 0 1 1137.25 323.411)" fill="#FDF600"/>
<path d="M2076.3 872L2169.9 662H2217.9L2311.8 872H2260.8L2184 686.6H2203.2L2126.1 872H2076.3ZM2123.1 827L2136 790.1H2244L2257.2 827H2123.1ZM2406.82 874.4C2389.42 874.4 2373.92 870.9 2360.32 863.9C2346.72 856.7 2336.02 846.8 2328.22 834.2C2320.62 821.6 2316.82 807.3 2316.82 791.3C2316.82 775.1 2320.62 760.8 2328.22 748.4C2336.02 735.8 2346.72 726 2360.32 719C2373.92 711.8 2389.42 708.2 2406.82 708.2C2423.82 708.2 2438.62 711.8 2451.22 719C2463.82 726 2473.12 736.1 2479.12 749.3L2442.82 768.8C2438.62 761.2 2433.32 755.6 2426.92 752C2420.72 748.4 2413.92 746.6 2406.52 746.6C2398.52 746.6 2391.32 748.4 2384.92 752C2378.52 755.6 2373.42 760.7 2369.62 767.3C2366.02 773.9 2364.22 781.9 2364.22 791.3C2364.22 800.7 2366.02 808.7 2369.62 815.3C2373.42 821.9 2378.52 827 2384.92 830.6C2391.32 834.2 2398.52 836 2406.52 836C2413.92 836 2420.72 834.3 2426.92 830.9C2433.32 827.3 2438.62 821.6 2442.82 813.8L2479.12 833.6C2473.12 846.6 2463.82 856.7 2451.22 863.9C2438.62 870.9 2423.82 874.4 2406.82 874.4ZM2584.12 874.4C2565.72 874.4 2549.52 870.8 2535.52 863.6C2521.72 856.4 2511.02 846.6 2503.42 834.2C2495.82 821.6 2492.02 807.3 2492.02 791.3C2492.02 775.1 2495.72 760.8 2503.12 748.4C2510.72 735.8 2521.02 726 2534.02 719C2547.02 711.8 2561.72 708.2 2578.12 708.2C2593.92 708.2 2608.12 711.6 2620.72 718.4C2633.52 725 2643.62 734.6 2651.02 747.2C2658.42 759.6 2662.12 774.5 2662.12 791.9C2662.12 793.7 2662.02 795.8 2661.82 798.2C2661.62 800.4 2661.42 802.5 2661.22 804.5H2530.12V777.2H2636.62L2618.62 785.3C2618.62 776.9 2616.92 769.6 2613.52 763.4C2610.12 757.2 2605.42 752.4 2599.42 749C2593.42 745.4 2586.42 743.6 2578.42 743.6C2570.42 743.6 2563.32 745.4 2557.12 749C2551.12 752.4 2546.42 757.3 2543.02 763.7C2539.62 769.9 2537.92 777.3 2537.92 785.9V793.1C2537.92 801.9 2539.82 809.7 2543.62 816.5C2547.62 823.1 2553.12 828.2 2560.12 831.8C2567.32 835.2 2575.72 836.9 2585.32 836.9C2593.92 836.9 2601.42 835.6 2607.82 833C2614.42 830.4 2620.42 826.5 2625.82 821.3L2650.72 848.3C2643.32 856.7 2634.02 863.2 2622.82 867.8C2611.62 872.2 2598.72 874.4 2584.12 874.4ZM2747.58 874.4C2733.78 874.4 2720.48 872.8 2707.68 869.6C2695.08 866.2 2685.08 862 2677.68 857L2693.28 823.4C2700.68 828 2709.38 831.8 2719.38 834.8C2729.58 837.6 2739.58 839 2749.38 839C2760.18 839 2767.78 837.7 2772.18 835.1C2776.78 832.5 2779.08 828.9 2779.08 824.3C2779.08 820.5 2777.28 817.7 2773.68 815.9C2770.28 813.9 2765.68 812.4 2759.88 811.4C2754.08 810.4 2747.68 809.4 2740.68 808.4C2733.88 807.4 2726.98 806.1 2719.98 804.5C2712.98 802.7 2706.58 800.1 2700.78 796.7C2694.98 793.3 2690.28 788.7 2686.68 782.9C2683.28 777.1 2681.58 769.6 2681.58 760.4C2681.58 750.2 2684.48 741.2 2690.28 733.4C2696.28 725.6 2704.88 719.5 2716.08 715.1C2727.28 710.5 2740.68 708.2 2756.28 708.2C2767.28 708.2 2778.48 709.4 2789.88 711.8C2801.28 714.2 2810.78 717.7 2818.38 722.3L2802.78 755.6C2794.98 751 2787.08 747.9 2779.08 746.3C2771.28 744.5 2763.68 743.6 2756.28 743.6C2745.88 743.6 2738.28 745 2733.48 747.8C2728.68 750.6 2726.28 754.2 2726.28 758.6C2726.28 762.6 2727.98 765.6 2731.38 767.6C2734.98 769.6 2739.68 771.2 2745.48 772.4C2751.28 773.6 2757.58 774.7 2764.38 775.7C2771.38 776.5 2778.38 777.8 2785.38 779.6C2792.38 781.4 2798.68 784 2804.28 787.4C2810.08 790.6 2814.78 795.1 2818.38 800.9C2821.98 806.5 2823.78 813.9 2823.78 823.1C2823.78 833.1 2820.78 842 2814.78 849.8C2808.78 857.4 2800.08 863.4 2788.68 867.8C2777.48 872.2 2763.78 874.4 2747.58 874.4ZM2906.95 874.4C2893.15 874.4 2879.85 872.8 2867.05 869.6C2854.45 866.2 2844.45 862 2837.05 857L2852.65 823.4C2860.05 828 2868.75 831.8 2878.75 834.8C2888.95 837.6 2898.95 839 2908.75 839C2919.55 839 2927.15 837.7 2931.55 835.1C2936.15 832.5 2938.45 828.9 2938.45 824.3C2938.45 820.5 2936.65 817.7 2933.05 815.9C2929.65 813.9 2925.05 812.4 2919.25 811.4C2913.45 810.4 2907.05 809.4 2900.05 808.4C2893.25 807.4 2886.35 806.1 2879.35 804.5C2872.35 802.7 2865.95 800.1 2860.15 796.7C2854.35 793.3 2849.65 788.7 2846.05 782.9C2842.65 777.1 2840.95 769.6 2840.95 760.4C2840.95 750.2 2843.85 741.2 2849.65 733.4C2855.65 725.6 2864.25 719.5 2875.45 715.1C2886.65 710.5 2900.05 708.2 2915.65 708.2C2926.65 708.2 2937.85 709.4 2949.25 711.8C2960.65 714.2 2970.15 717.7 2977.75 722.3L2962.15 755.6C2954.35 751 2946.45 747.9 2938.45 746.3C2930.65 744.5 2923.05 743.6 2915.65 743.6C2905.25 743.6 2897.65 745 2892.85 747.8C2888.05 750.6 2885.65 754.2 2885.65 758.6C2885.65 762.6 2887.35 765.6 2890.75 767.6C2894.35 769.6 2899.05 771.2 2904.85 772.4C2910.65 773.6 2916.95 774.7 2923.75 775.7C2930.75 776.5 2937.75 777.8 2944.75 779.6C2951.75 781.4 2958.05 784 2963.65 787.4C2969.45 790.6 2974.15 795.1 2977.75 800.9C2981.35 806.5 2983.15 813.9 2983.15 823.1C2983.15 833.1 2980.15 842 2974.15 849.8C2968.15 857.4 2959.45 863.4 2948.05 867.8C2936.85 872.2 2923.15 874.4 2906.95 874.4ZM3088.83 874.4C3071.63 874.4 3056.33 870.8 3042.93 863.6C3029.73 856.4 3019.23 846.6 3011.43 834.2C3003.83 821.6 3000.03 807.3 3000.03 791.3C3000.03 775.1 3003.83 760.8 3011.43 748.4C3019.23 735.8 3029.73 726 3042.93 719C3056.33 711.8 3071.63 708.2 3088.83 708.2C3105.83 708.2 3121.03 711.8 3134.43 719C3147.83 726 3158.33 735.7 3165.93 748.1C3173.53 760.5 3177.33 774.9 3177.33 791.3C3177.33 807.3 3173.53 821.6 3165.93 834.2C3158.33 846.6 3147.83 856.4 3134.43 863.6C3121.03 870.8 3105.83 874.4 3088.83 874.4ZM3088.83 836C3096.63 836 3103.63 834.2 3109.83 830.6C3116.03 827 3120.93 821.9 3124.53 815.3C3128.13 808.5 3129.93 800.5 3129.93 791.3C3129.93 781.9 3128.13 773.9 3124.53 767.3C3120.93 760.7 3116.03 755.6 3109.83 752C3103.63 748.4 3096.63 746.6 3088.83 746.6C3081.03 746.6 3074.03 748.4 3067.83 752C3061.63 755.6 3056.63 760.7 3052.83 767.3C3049.23 773.9 3047.43 781.9 3047.43 791.3C3047.43 800.5 3049.23 808.5 3052.83 815.3C3056.63 821.9 3061.63 827 3067.83 830.6C3074.03 834.2 3081.03 836 3088.83 836ZM3398.27 875.6C3381.67 875.6 3366.37 873 3352.37 867.8C3338.57 862.4 3326.47 854.8 3316.07 845C3305.87 835.2 3297.87 823.7 3292.07 810.5C3286.47 797.3 3283.67 782.8 3283.67 767C3283.67 751.2 3286.47 736.7 3292.07 723.5C3297.87 710.3 3305.97 698.8 3316.37 689C3326.77 679.2 3338.97 671.7 3352.97 666.5C3366.97 661.1 3382.37 658.4 3399.17 658.4C3417.77 658.4 3434.47 661.5 3449.27 667.7C3464.27 673.9 3476.87 682.9 3487.07 694.7L3455.87 723.5C3448.27 715.5 3439.97 709.6 3430.97 705.8C3421.97 701.8 3412.17 699.8 3401.57 699.8C3391.37 699.8 3382.07 701.4 3373.67 704.6C3365.27 707.8 3357.97 712.4 3351.77 718.4C3345.77 724.4 3341.07 731.5 3337.67 739.7C3334.47 747.9 3332.87 757 3332.87 767C3332.87 776.8 3334.47 785.8 3337.67 794C3341.07 802.2 3345.77 809.4 3351.77 815.6C3357.97 821.6 3365.17 826.2 3373.37 829.4C3381.77 832.6 3390.97 834.2 3400.97 834.2C3410.57 834.2 3419.87 832.7 3428.87 829.7C3438.07 826.5 3446.97 821.2 3455.57 813.8L3483.17 848.9C3471.77 857.5 3458.47 864.1 3443.27 868.7C3428.27 873.3 3413.27 875.6 3398.27 875.6ZM3438.77 842.6V763.7H3483.17V848.9L3438.77 842.6ZM3624.01 872V840.5L3621.01 833.6V777.2C3621.01 767.2 3617.91 759.4 3611.71 753.8C3605.71 748.2 3596.41 745.4 3583.81 745.4C3575.21 745.4 3566.71 746.8 3558.31 749.6C3550.11 752.2 3543.11 755.8 3537.31 760.4L3520.51 727.7C3529.31 721.5 3539.91 716.7 3552.31 713.3C3564.71 709.9 3577.31 708.2 3590.11 708.2C3614.71 708.2 3633.81 714 3647.41 725.6C3661.01 737.2 3667.81 755.3 3667.81 779.9V872H3624.01ZM3574.81 874.4C3562.21 874.4 3551.41 872.3 3542.41 868.1C3533.41 863.7 3526.51 857.8 3521.71 850.4C3516.91 843 3514.51 834.7 3514.51 825.5C3514.51 815.9 3516.81 807.5 3521.41 800.3C3526.21 793.1 3533.71 787.5 3543.91 783.5C3554.11 779.3 3567.41 777.2 3583.81 777.2H3626.71V804.5H3588.91C3577.91 804.5 3570.31 806.3 3566.11 809.9C3562.11 813.5 3560.11 818 3560.11 823.4C3560.11 829.4 3562.41 834.2 3567.01 837.8C3571.81 841.2 3578.31 842.9 3586.51 842.9C3594.31 842.9 3601.31 841.1 3607.51 837.5C3613.71 833.7 3618.21 828.2 3621.01 821L3628.21 842.6C3624.81 853 3618.61 860.9 3609.61 866.3C3600.61 871.7 3589.01 874.4 3574.81 874.4ZM3916.87 708.2C3929.67 708.2 3940.97 710.8 3950.77 716C3960.77 721 3968.57 728.8 3974.17 739.4C3979.97 749.8 3982.87 763.2 3982.87 779.6V872H3936.07V786.8C3936.07 773.8 3933.37 764.2 3927.97 758C3922.57 751.8 3914.97 748.7 3905.17 748.7C3898.37 748.7 3892.27 750.3 3886.87 753.5C3881.47 756.5 3877.27 761.1 3874.27 767.3C3871.27 773.5 3869.77 781.4 3869.77 791V872H3822.97V786.8C3822.97 773.8 3820.27 764.2 3814.87 758C3809.67 751.8 3802.17 748.7 3792.37 748.7C3785.57 748.7 3779.47 750.3 3774.07 753.5C3768.67 756.5 3764.47 761.1 3761.47 767.3C3758.47 773.5 3756.97 781.4 3756.97 791V872H3710.17V710.6H3754.87V754.7L3746.47 741.8C3752.07 730.8 3759.97 722.5 3770.17 716.9C3780.57 711.1 3792.37 708.2 3805.57 708.2C3820.37 708.2 3833.27 712 3844.27 719.6C3855.47 727 3862.87 738.4 3866.47 753.8L3849.97 749.3C3855.37 736.7 3863.97 726.7 3875.77 719.3C3887.77 711.9 3901.47 708.2 3916.87 708.2ZM4106.09 874.4C4087.69 874.4 4071.49 870.8 4057.49 863.6C4043.69 856.4 4032.99 846.6 4025.39 834.2C4017.79 821.6 4013.99 807.3 4013.99 791.3C4013.99 775.1 4017.69 760.8 4025.09 748.4C4032.69 735.8 4042.99 726 4055.99 719C4068.99 711.8 4083.69 708.2 4100.09 708.2C4115.89 708.2 4130.09 711.6 4142.69 718.4C4155.49 725 4165.59 734.6 4172.99 747.2C4180.39 759.6 4184.09 774.5 4184.09 791.9C4184.09 793.7 4183.99 795.8 4183.79 798.2C4183.59 800.4 4183.39 802.5 4183.19 804.5H4052.09V777.2H4158.59L4140.59 785.3C4140.59 776.9 4138.89 769.6 4135.49 763.4C4132.09 757.2 4127.39 752.4 4121.39 749C4115.39 745.4 4108.39 743.6 4100.39 743.6C4092.39 743.6 4085.29 745.4 4079.09 749C4073.09 752.4 4068.39 757.3 4064.99 763.7C4061.59 769.9 4059.89 777.3 4059.89 785.9V793.1C4059.89 801.9 4061.79 809.7 4065.59 816.5C4069.59 823.1 4075.09 828.2 4082.09 831.8C4089.29 835.2 4097.69 836.9 4107.29 836.9C4115.89 836.9 4123.39 835.6 4129.79 833C4136.39 830.4 4142.39 826.5 4147.79 821.3L4172.69 848.3C4165.29 856.7 4155.99 863.2 4144.79 867.8C4133.59 872.2 4120.69 874.4 4106.09 874.4ZM4269.55 874.4C4255.75 874.4 4242.45 872.8 4229.65 869.6C4217.05 866.2 4207.05 862 4199.65 857L4215.25 823.4C4222.65 828 4231.35 831.8 4241.35 834.8C4251.55 837.6 4261.55 839 4271.35 839C4282.15 839 4289.75 837.7 4294.15 835.1C4298.75 832.5 4301.05 828.9 4301.05 824.3C4301.05 820.5 4299.25 817.7 4295.65 815.9C4292.25 813.9 4287.65 812.4 4281.85 811.4C4276.05 810.4 4269.65 809.4 4262.65 808.4C4255.85 807.4 4248.95 806.1 4241.95 804.5C4234.95 802.7 4228.55 800.1 4222.75 796.7C4216.95 793.3 4212.25 788.7 4208.65 782.9C4205.25 777.1 4203.55 769.6 4203.55 760.4C4203.55 750.2 4206.45 741.2 4212.25 733.4C4218.25 725.6 4226.85 719.5 4238.05 715.1C4249.25 710.5 4262.65 708.2 4278.25 708.2C4289.25 708.2 4300.45 709.4 4311.85 711.8C4323.25 714.2 4332.75 717.7 4340.35 722.3L4324.75 755.6C4316.95 751 4309.05 747.9 4301.05 746.3C4293.25 744.5 4285.65 743.6 4278.25 743.6C4267.85 743.6 4260.25 745 4255.45 747.8C4250.65 750.6 4248.25 754.2 4248.25 758.6C4248.25 762.6 4249.95 765.6 4253.35 767.6C4256.95 769.6 4261.65 771.2 4267.45 772.4C4273.25 773.6 4279.55 774.7 4286.35 775.7C4293.35 776.5 4300.35 777.8 4307.35 779.6C4314.35 781.4 4320.65 784 4326.25 787.4C4332.05 790.6 4336.75 795.1 4340.35 800.9C4343.95 806.5 4345.75 813.9 4345.75 823.1C4345.75 833.1 4342.75 842 4336.75 849.8C4330.75 857.4 4322.05 863.4 4310.65 867.8C4299.45 872.2 4285.75 874.4 4269.55 874.4Z" fill="#001E2C"/>
<defs>
<linearGradient id="paint0_linear_17_24" x1="1065.63" y1="278.768" x2="1317.68" y2="119.725" gradientUnits="userSpaceOnUse">
<stop stop-color="#92ABB7"/>
<stop offset="1" stop-color="#ACC1CB"/>
</linearGradient>
<linearGradient id="paint1_linear_17_24" x1="1065.63" y1="278.768" x2="1317.68" y2="119.725" gradientUnits="userSpaceOnUse">
<stop stop-color="#92ABB7"/>
<stop offset="1" stop-color="#ACC1CB"/>
</linearGradient>
<linearGradient id="paint2_linear_17_24" x1="1016.62" y1="278.588" x2="764.57" y2="119.545" gradientUnits="userSpaceOnUse">
<stop stop-color="#92ABB7"/>
<stop offset="1" stop-color="#ACC1CB"/>
</linearGradient>
<linearGradient id="paint3_linear_17_24" x1="1016.62" y1="278.588" x2="764.57" y2="119.545" gradientUnits="userSpaceOnUse">
<stop stop-color="#92ABB7"/>
<stop offset="1" stop-color="#ACC1CB"/>
</linearGradient>
<linearGradient id="paint4_linear_17_24" x1="1491.19" y1="240.871" x2="1492.92" y2="336.672" gradientUnits="userSpaceOnUse">
<stop stop-color="#F9D800"/>
<stop offset="0.385" stop-color="#F4D401"/>
</linearGradient>
<linearGradient id="paint5_linear_17_24" x1="1491.19" y1="240.871" x2="1492.92" y2="336.672" gradientUnits="userSpaceOnUse">
<stop stop-color="#F9D800"/>
<stop offset="0.385" stop-color="#F4D401"/>
</linearGradient>
<linearGradient id="paint6_linear_17_24" x1="1491.19" y1="240.871" x2="1492.92" y2="336.672" gradientUnits="userSpaceOnUse">
<stop stop-color="#F9D800"/>
<stop offset="0.385" stop-color="#F4D401"/>
</linearGradient>
<linearGradient id="paint7_linear_17_24" x1="1491.19" y1="240.871" x2="1492.92" y2="336.672" gradientUnits="userSpaceOnUse">
<stop stop-color="#F9D800"/>
<stop offset="0.385" stop-color="#F4D401"/>
</linearGradient>
<linearGradient id="paint8_linear_17_24" x1="684.764" y1="239.705" x2="686.624" y2="336.433" gradientUnits="userSpaceOnUse">
<stop stop-color="#F9D800"/>
<stop offset="0.385" stop-color="#F4D401"/>
</linearGradient>
<linearGradient id="paint9_linear_17_24" x1="684.764" y1="239.705" x2="686.624" y2="336.433" gradientUnits="userSpaceOnUse">
<stop stop-color="#F9D800"/>
<stop offset="0.385" stop-color="#F4D401"/>
</linearGradient>
</defs>
</svg>
