<svg width="2297" height="1857" viewBox="0 0 2297 1857" fill="none" xmlns="http://www.w3.org/2000/svg">
<path d="M735.5 138C591.5 246.5 546.5 290.5 476 470L418 455C380.248 446.106 357.081 441.074 288.5 431.5C243.725 423.486 210.144 421.555 127.5 425C70.0692 427.399 31.4872 425.818 32.4999 455C34.9397 495.82 39.6532 518 50.9999 553.5C62.3467 589 69.8225 626.329 97.9999 679.5C121.674 725.299 136.956 750.838 177 795.5C221.076 844.919 250.98 868.295 311.5 904C349.35 924.108 374.35 935.52 435.5 956.5C445.91 989.411 461.088 1038.1 467.5 1046.5C473.912 1054.9 467.5 1058 467.5 1058C458.305 1083.77 453.998 1098.66 452.5 1128.5C450.774 1162.71 452.05 1182.71 474 1225.5C497.882 1262.83 513.197 1283.26 568 1312.5C599.246 1327.3 623.539 1332.18 680.5 1334.5C748.673 1385.24 789.587 1412.61 880 1454.5C930.019 1475.62 962.693 1485.5 1033 1498C1102.9 1508.13 1142.69 1510.5 1215.5 1504.5C1272.33 1498.06 1307.23 1490.49 1376 1468.5L1469.5 1431C1508.74 1409.43 1539.05 1390.01 1619 1332.5C1677.26 1334.3 1711.81 1324.94 1778.5 1281C1816.59 1245.9 1830.84 1218.73 1844.5 1158C1844.2 1113.02 1841.18 1088.8 1826 1049C1842.8 1011.71 1850.4 990.681 1861.5 953C1964.99 919.017 2022.08 887.084 2121.5 795C2201.59 686.045 2211.45 658.594 2227.76 613.167L2228 612.5C2255.9 516.164 2275.26 455.379 2257 443C2219 407 2068.93 413.785 1822.5 470C1742.27 290.513 1674.85 206.764 1502.5 96.5C1378.78 28.5188 1301.5 2.5 1149 2.5C996.5 2.5 879.5 29.5 735.5 138Z" fill="#001E2C"/>
<path d="M2228 612.5C2255.9 516.164 2275.26 455.379 2257 443C2219 407 2068.93 413.785 1822.5 470C1742.27 290.513 1674.85 206.764 1502.5 96.5C1378.78 28.5188 1301.5 2.5 1149 2.5C996.5 2.5 879.5 29.5 735.5 138C591.5 246.5 546.5 290.5 476 470L418 455C380.248 446.106 357.081 441.074 288.5 431.5C243.725 423.486 210.144 421.555 127.5 425C70.0692 427.399 31.4872 425.818 32.4999 455C34.9397 495.82 39.6532 518 50.9999 553.5C62.3467 589 69.8225 626.329 97.9999 679.5C121.674 725.299 136.956 750.838 177 795.5C221.076 844.919 250.98 868.295 311.5 904C349.35 924.108 374.35 935.52 435.5 956.5C445.91 989.411 461.088 1038.1 467.5 1046.5C473.912 1054.9 467.5 1058 467.5 1058C458.305 1083.77 453.998 1098.66 452.5 1128.5C450.774 1162.71 452.05 1182.71 474 1225.5C497.882 1262.83 513.197 1283.26 568 1312.5C599.246 1327.3 623.539 1332.18 680.5 1334.5C748.673 1385.24 789.587 1412.61 880 1454.5C930.019 1475.62 962.693 1485.5 1033 1498C1102.9 1508.13 1142.69 1510.5 1215.5 1504.5C1272.33 1498.06 1307.23 1490.49 1376 1468.5L1469.5 1431C1508.74 1409.43 1539.05 1390.01 1619 1332.5C1677.26 1334.3 1711.81 1324.94 1778.5 1281C1816.59 1245.9 1830.84 1218.73 1844.5 1158C1844.2 1113.02 1841.18 1088.8 1826 1049C1842.8 1011.71 1850.4 990.681 1861.5 953C1964.99 919.017 2022.08 887.084 2121.5 795C2201.59 686.045 2211.45 658.594 2227.76 613.167M2228 612.5L2227.76 613.167M2228 612.5C2227.92 612.723 2227.84 612.945 2227.76 613.167" stroke="#001E2C" stroke-width="5"/>
<path d="M1175 298.5C1200.99 183.816 1312 101 1393 136.5C1474 172.001 1461 276.5 1365.5 270C1334.64 253.28 1330.18 245.196 1333.5 208.5H1353C1354.88 258.813 1398.7 257.322 1415.5 224C1422.07 184.087 1410.14 171.105 1375.5 156C1346.24 151.142 1329.35 153.666 1298 169.5C1258.65 193.989 1240.41 209.314 1222 242.5C1207.14 264.297 1200.14 276.535 1198 298.5H1175Z" fill="url(#paint0_linear_16_39)" stroke="url(#paint1_linear_16_39)" stroke-width="5" stroke-linecap="round"/>
<path d="M904.307 136.308C985.307 100.807 1096.31 183.623 1122.31 298.308H1099.31C1097.16 276.342 1090.17 264.105 1075.31 242.307C1056.89 209.121 1038.65 193.797 999.307 169.307C967.961 153.474 951.065 150.95 921.807 155.807C887.168 170.912 875.233 183.894 881.807 223.807C898.603 257.129 942.427 258.621 944.307 208.307H963.807C967.126 245.003 962.664 253.087 931.807 269.807C836.307 276.307 823.307 171.808 904.307 136.308Z" fill="url(#paint2_linear_16_39)" stroke="url(#paint3_linear_16_39)" stroke-width="5" stroke-linecap="round"/>
<path d="M1467.5 311C1502.16 323.174 1516.41 337.802 1531.5 379C1553.01 330.137 1567.41 315.458 1598.5 311C1557.19 295.324 1544.77 276.066 1531.5 233C1514.04 281.064 1499.43 296.737 1467.5 311Z" fill="url(#paint4_linear_16_39)"/>
<path d="M1639.5 459.5C1659.07 451.159 1663.74 443.465 1669.5 428.5C1676.93 447.838 1683.75 453.967 1699 459.5C1683.75 466.61 1677.48 473.564 1669.5 490C1665.23 474.113 1658.61 467.463 1639.5 459.5Z" fill="url(#paint5_linear_16_39)"/>
<path d="M1467.5 311C1502.16 323.174 1516.41 337.802 1531.5 379C1553.01 330.137 1567.41 315.458 1598.5 311C1557.19 295.324 1544.77 276.066 1531.5 233C1514.04 281.064 1499.43 296.737 1467.5 311Z" stroke="url(#paint6_linear_16_39)" stroke-width="5"/>
<path d="M1639.5 459.5C1659.07 451.159 1663.74 443.465 1669.5 428.5C1676.93 447.838 1683.75 453.967 1699 459.5C1683.75 466.61 1677.48 473.564 1669.5 490C1665.23 474.113 1658.61 467.463 1639.5 459.5Z" stroke="url(#paint7_linear_16_39)" stroke-width="5"/>
<path d="M828.5 309C793.672 324.137 778.914 339.926 762 382.5C751.605 343.172 736.097 328.559 700 309C737.569 290.434 750.061 272.494 762 231.5C776.015 273.147 787.192 293.333 828.5 309Z" fill="url(#paint8_linear_16_39)"/>
<path d="M642 428.5C649.208 443.171 654.562 451.061 672.5 463C656.615 468.707 649.632 474.436 642 491C634.413 473.531 626.287 468.499 609 463C627.002 452.362 633.371 444.33 642 428.5Z" fill="url(#paint9_linear_16_39)"/>
<path d="M828.5 309C793.672 324.137 778.914 339.926 762 382.5C751.605 343.172 736.097 328.559 700 309C737.569 290.434 750.061 272.494 762 231.5C776.015 273.147 787.192 293.333 828.5 309Z" stroke="#F9D800" stroke-width="5"/>
<path d="M642 428.5C649.208 443.171 654.562 451.061 672.5 463C656.615 468.707 649.632 474.436 642 491C634.413 473.531 626.287 468.499 609 463C627.002 452.362 633.371 444.33 642 428.5Z" stroke="#F9D800" stroke-width="5"/>
<circle cx="799" cy="511" r="25" fill="#FCE103"/>
<path d="M1336 1230C1328.2 1254.81 1320.47 1265.83 1298 1278C1325.42 1284.03 1332.63 1292.49 1336 1313.5C1343.78 1290.54 1351.52 1282.65 1371 1278C1350.84 1269.63 1344.69 1256.7 1336 1230Z" fill="#F6DD07"/>
<path d="M1007.5 1278C982.343 1281.98 973.578 1296.12 966 1319.5C964.694 1300.25 957.253 1286.05 927 1278C949.601 1268.74 957.787 1258.96 966 1235C971.659 1256.99 979.837 1266.85 1007.5 1278Z" fill="#F6DD07"/>
<path d="M1148.5 623.5C1113.91 702.196 1100.57 752.276 1091 855.5C1087.95 963.895 1087.33 1035.96 1088.85 1125.5C1107.35 1206.91 1118.82 1251.81 1146.5 1327C1175.87 1249.73 1185.49 1205.14 1202 1125.5V855.5C1196.59 761.032 1182.41 710.852 1148.5 623.5Z" fill="#FCF700"/>
<path d="M1091 1220.5C1098.33 1348.11 1111.36 1399.16 1147 1461.5C1188.53 1384.5 1199.81 1331.06 1202 1220.5V1125.5C1185.49 1205.14 1175.87 1249.73 1146.5 1327C1118.82 1251.81 1107.35 1206.91 1088.85 1125.5C1089.34 1154.69 1090.06 1185.73 1091 1220.5Z" fill="#F3B20B"/>
<path d="M855.5 1015C860.156 1054.77 855.399 1079.06 828 1127.5C832.368 1123.43 836.568 1119.52 840.606 1115.77C874.556 1084.2 897.054 1063.27 911.5 1044C950.991 991.678 960.083 973.565 973.152 947.53C975.279 943.29 977.513 938.841 980 934C1004.22 878.635 1015.4 851.318 1018 829.5C948.709 920.427 911.335 966.715 855.5 1015Z" fill="#C4D8DE"/>
<path fill-rule="evenodd" clip-rule="evenodd" d="M1025 811C934.392 869.28 887.71 893.975 812 923C697.793 968.494 663.943 985.84 630.5 1009.5C557.059 1070.09 539.961 1096.84 533 1137.5C531.665 1201.57 551.121 1226.43 622 1251C683.534 1256.61 718.126 1253.7 780 1232.5C832.773 1205.22 859.904 1184.86 903 1137.5C945.742 1088.05 957.507 1069.72 969.5 1044C995.686 998.705 1001.4 980.819 1011.5 949C1025.04 893.92 1025.75 864.026 1025 811ZM1018 829.5L1025 811L1001 829.5C886.301 943.923 817.351 1006.95 679.5 1115.77C670.465 1126.17 650.367 1145.94 625.217 1170.67L625.216 1170.67C616.952 1178.79 608.142 1187.46 599 1196.5C700.773 1151.85 756.723 1108.6 855.5 1015C860.156 1054.77 855.399 1079.06 828 1127.5C832.368 1123.43 836.568 1119.52 840.606 1115.77C874.556 1084.2 897.054 1063.27 911.5 1044C950.991 991.678 960.083 973.565 973.152 947.53C975.279 943.29 977.513 938.841 980 934C1004.22 878.635 1015.4 851.318 1018 829.5Z" fill="#6D99A8"/>
<path d="M855.5 1015C911.335 966.715 948.709 920.427 1018 829.5L1025 811L1001 829.5C886.301 943.923 817.351 1006.95 679.5 1115.77C670.465 1126.17 650.367 1145.94 625.217 1170.67L625.216 1170.67C616.952 1178.79 608.142 1187.46 599 1196.5C700.773 1151.85 756.723 1108.6 855.5 1015Z" fill="#F0FBF9"/>
<path d="M1266.2 811C1356.81 869.28 1403.49 893.975 1479.2 923C1593.41 968.494 1627.26 985.84 1660.7 1009.5C1734.14 1070.09 1751.24 1096.84 1758.2 1137.5C1759.54 1201.57 1740.08 1226.43 1669.2 1251C1607.67 1256.61 1573.07 1253.7 1511.2 1232.5C1458.43 1205.22 1431.3 1184.86 1388.2 1137.5C1345.46 1088.05 1333.69 1069.72 1321.7 1044C1295.52 998.705 1289.8 980.819 1279.7 949C1266.17 893.92 1265.45 864.026 1266.2 811L1273.2 829.5C1275.8 851.318 1286.98 878.635 1311.2 934C1313.69 938.841 1315.92 943.29 1318.05 947.53C1331.12 973.565 1340.21 991.678 1379.7 1044C1394.15 1063.27 1416.65 1084.2 1450.6 1115.77C1454.63 1119.52 1458.83 1123.43 1463.2 1127.5C1435.8 1079.06 1431.05 1054.77 1435.7 1015C1534.48 1108.6 1590.43 1151.85 1692.2 1196.5C1683.06 1187.46 1674.25 1178.79 1665.99 1170.67L1665.98 1170.67L1665.98 1170.67L1665.98 1170.66C1664.41 1169.12 1662.86 1167.59 1661.33 1166.09C1638.36 1143.5 1620.17 1125.52 1611.7 1115.77C1473.85 1006.95 1404.9 943.923 1290.2 829.5L1266.2 811Z" fill="#6997A8"/>
<path fill-rule="evenodd" clip-rule="evenodd" d="M1665.98 1170.67L1665.98 1170.66C1664.41 1169.12 1662.86 1167.59 1661.33 1166.09C1662.86 1167.59 1664.41 1169.12 1665.98 1170.67Z" fill="#D9D9D9"/>
<path d="M1435.7 1015C1379.87 966.715 1342.49 920.427 1273.2 829.5L1266.2 811L1290.2 829.5C1404.9 943.923 1473.85 1006.95 1611.7 1115.77C1620.17 1125.52 1638.36 1143.5 1661.33 1166.09C1662.86 1167.59 1664.41 1169.12 1665.98 1170.66L1665.98 1170.67L1665.98 1170.67L1665.99 1170.67C1674.25 1178.79 1683.06 1187.46 1692.2 1196.5C1590.43 1151.85 1534.48 1108.6 1435.7 1015Z" fill="#F7FEFE"/>
<path d="M1435.7 1015C1431.05 1054.77 1435.8 1079.06 1463.2 1127.5C1458.83 1123.43 1454.63 1119.52 1450.6 1115.77C1416.65 1084.2 1394.15 1063.27 1379.7 1044C1340.21 991.678 1331.12 973.565 1318.05 947.53C1315.92 943.29 1313.69 938.841 1311.2 934C1286.98 878.635 1275.8 851.318 1273.2 829.5C1342.49 920.427 1379.87 966.715 1435.7 1015Z" fill="#C4D8DE"/>
<path d="M308 804.5C412.656 874.218 490.268 888.887 652 885C769.232 866.179 870.53 825.312 907 804.5C993.061 757.266 1020.52 732.189 1055 695.466L1014.5 700C1002.19 714.113 943.481 728.658 738 767.5C674.609 778.328 636.727 781.96 561 780C474.469 765.36 422.702 753.391 369 734.398C351.313 728.142 333.417 721.125 314 713L687.5 708.5C574.069 670.43 509.346 645.554 392.5 597L276.5 545C230.243 534.402 207.65 534.512 130.015 530.5C153.381 649.143 200.403 711.302 308 804.5Z" fill="#6D99A8"/>
<path d="M461 584.5C402.683 569.71 350.649 558.113 276.5 545L392.5 597C509.346 645.554 574.069 670.43 687.5 708.5C798.519 711.858 838.743 714.728 851.5 722.5C815.39 730.819 795.504 733.836 761 734.398H369C422.702 753.391 474.469 765.36 561 780C636.727 781.96 674.609 778.328 738 767.5C943.481 728.658 1002.19 714.113 1014.5 700C955.219 697.79 920.836 695.217 855.5 686C775.531 669.717 727.371 654.173 642.5 632.5C574.785 611.159 537.35 604.908 461 584.5Z" fill="#C0D8DE"/>
<path d="M687.5 708.5L314 713L369 734.398H761C795.504 733.836 815.39 730.819 851.5 722.5C838.743 714.728 798.519 711.858 687.5 708.5Z" fill="#F8FBFD"/>
<path d="M388.5 530.5C274.108 502.415 134.5 496.5 127.5 517C128.307 521.581 129.144 526.08 130.015 530.5C207.65 534.512 230.243 534.402 276.5 545C350.649 558.113 402.683 569.71 461 584.5C537.35 604.908 574.785 611.159 642.5 632.5C727.371 654.173 775.531 669.717 855.5 686C920.836 695.217 955.219 697.79 1014.5 700L1055 695.466C1058.81 691.413 1062.7 687.219 1066.76 682.837L1068 681.5C991.743 674.779 949.275 670.327 876.5 655L710 614.5L388.5 530.5Z" fill="#F8FBFD"/>
<path d="M1908.5 530.692C2022.89 502.607 2162.5 496.693 2169.5 517.192C2168.69 521.774 2167.86 526.272 2166.99 530.692C2089.35 534.705 2066.76 534.595 2020.5 545.193C1946.35 558.306 1894.32 569.903 1836 584.693C1759.65 605.1 1722.22 611.351 1654.5 632.693C1569.63 654.366 1521.47 669.909 1441.5 686.193C1376.16 695.409 1341.78 697.983 1282.5 700.193L1242 695.658C1238.19 691.606 1234.3 687.411 1230.24 683.029L1229 681.693C1305.26 674.972 1347.73 670.52 1420.5 655.193L1587 614.693L1908.5 530.692Z" fill="#F9FCFE"/>
<path d="M1836 584.693C1894.32 569.903 1946.35 558.306 2020.5 545.193L1904.5 597.193C1787.65 645.746 1722.93 670.622 1609.5 708.693C1498.48 712.051 1458.26 714.921 1445.5 722.693C1481.61 731.011 1501.5 734.028 1536 734.59H1928C1874.3 753.583 1822.53 765.553 1736 780.193C1660.27 782.153 1622.39 778.521 1559 767.693C1353.52 728.851 1294.81 714.306 1282.5 700.193C1341.78 697.983 1376.16 695.409 1441.5 686.193C1521.47 669.909 1569.63 654.366 1654.5 632.693C1722.22 611.351 1759.65 605.1 1836 584.693Z" fill="#C2D4DD"/>
<path d="M1609.5 708.693L1983 713.193L1928 734.59H1536C1501.5 734.028 1481.61 731.011 1445.5 722.693C1458.26 714.921 1498.48 712.051 1609.5 708.693Z" fill="#FAFCFD"/>
<path d="M1989 804.693C1884.34 874.411 1806.73 889.08 1645 885.193C1527.77 866.371 1426.47 825.504 1390 804.693C1303.94 757.459 1276.48 732.382 1242 695.658L1282.5 700.193C1294.81 714.306 1353.52 728.851 1559 767.693C1622.39 778.521 1660.27 782.153 1736 780.193C1822.53 765.553 1874.3 753.583 1928 734.59C1945.69 728.335 1963.58 721.318 1983 713.193L1609.5 708.693C1722.93 670.622 1787.65 645.746 1904.5 597.193L2020.5 545.193C2066.76 534.595 2089.35 534.705 2166.99 530.692C2143.62 649.335 2096.6 711.494 1989 804.693Z" fill="#6B95A4"/>
<ellipse cx="1149" cy="462.5" rx="116" ry="115.5" fill="#F6AD0B"/>
<ellipse cx="102.5" cy="92" rx="102.5" ry="92" transform="matrix(-1 0 0 1 1252 347)" fill="#FDF600"/>
<path d="M0.3 1799L93.9 1589H141.9L235.8 1799H184.8L108 1613.6H127.2L50.1 1799H0.3ZM47.1 1754L60 1717.1H168L181.2 1754H47.1ZM330.823 1801.4C313.423 1801.4 297.923 1797.9 284.323 1790.9C270.723 1783.7 260.023 1773.8 252.223 1761.2C244.623 1748.6 240.823 1734.3 240.823 1718.3C240.823 1702.1 244.623 1687.8 252.223 1675.4C260.023 1662.8 270.723 1653 284.323 1646C297.923 1638.8 313.423 1635.2 330.823 1635.2C347.823 1635.2 362.623 1638.8 375.223 1646C387.823 1653 397.123 1663.1 403.123 1676.3L366.823 1695.8C362.623 1688.2 357.323 1682.6 350.923 1679C344.723 1675.4 337.923 1673.6 330.523 1673.6C322.523 1673.6 315.323 1675.4 308.923 1679C302.523 1682.6 297.423 1687.7 293.623 1694.3C290.023 1700.9 288.223 1708.9 288.223 1718.3C288.223 1727.7 290.023 1735.7 293.623 1742.3C297.423 1748.9 302.523 1754 308.923 1757.6C315.323 1761.2 322.523 1763 330.523 1763C337.923 1763 344.723 1761.3 350.923 1757.9C357.323 1754.3 362.623 1748.6 366.823 1740.8L403.123 1760.6C397.123 1773.6 387.823 1783.7 375.223 1790.9C362.623 1797.9 347.823 1801.4 330.823 1801.4ZM508.118 1801.4C489.718 1801.4 473.518 1797.8 459.518 1790.6C445.718 1783.4 435.018 1773.6 427.418 1761.2C419.818 1748.6 416.018 1734.3 416.018 1718.3C416.018 1702.1 419.718 1687.8 427.118 1675.4C434.718 1662.8 445.018 1653 458.018 1646C471.018 1638.8 485.718 1635.2 502.118 1635.2C517.918 1635.2 532.118 1638.6 544.718 1645.4C557.518 1652 567.618 1661.6 575.018 1674.2C582.418 1686.6 586.118 1701.5 586.118 1718.9C586.118 1720.7 586.018 1722.8 585.818 1725.2C585.618 1727.4 585.418 1729.5 585.218 1731.5H454.118V1704.2H560.618L542.618 1712.3C542.618 1703.9 540.918 1696.6 537.518 1690.4C534.118 1684.2 529.418 1679.4 523.418 1676C517.418 1672.4 510.418 1670.6 502.418 1670.6C494.418 1670.6 487.318 1672.4 481.118 1676C475.118 1679.4 470.418 1684.3 467.018 1690.7C463.618 1696.9 461.918 1704.3 461.918 1712.9V1720.1C461.918 1728.9 463.818 1736.7 467.618 1743.5C471.618 1750.1 477.118 1755.2 484.118 1758.8C491.318 1762.2 499.718 1763.9 509.318 1763.9C517.918 1763.9 525.418 1762.6 531.818 1760C538.418 1757.4 544.418 1753.5 549.818 1748.3L574.718 1775.3C567.318 1783.7 558.018 1790.2 546.818 1794.8C535.618 1799.2 522.718 1801.4 508.118 1801.4ZM671.576 1801.4C657.776 1801.4 644.476 1799.8 631.676 1796.6C619.076 1793.2 609.076 1789 601.676 1784L617.276 1750.4C624.676 1755 633.376 1758.8 643.376 1761.8C653.576 1764.6 663.576 1766 673.376 1766C684.176 1766 691.776 1764.7 696.176 1762.1C700.776 1759.5 703.076 1755.9 703.076 1751.3C703.076 1747.5 701.276 1744.7 697.676 1742.9C694.276 1740.9 689.676 1739.4 683.876 1738.4C678.076 1737.4 671.676 1736.4 664.676 1735.4C657.876 1734.4 650.976 1733.1 643.976 1731.5C636.976 1729.7 630.576 1727.1 624.776 1723.7C618.976 1720.3 614.276 1715.7 610.676 1709.9C607.276 1704.1 605.576 1696.6 605.576 1687.4C605.576 1677.2 608.476 1668.2 614.276 1660.4C620.276 1652.6 628.876 1646.5 640.076 1642.1C651.276 1637.5 664.676 1635.2 680.276 1635.2C691.276 1635.2 702.476 1636.4 713.876 1638.8C725.276 1641.2 734.776 1644.7 742.376 1649.3L726.776 1682.6C718.976 1678 711.076 1674.9 703.076 1673.3C695.276 1671.5 687.676 1670.6 680.276 1670.6C669.876 1670.6 662.276 1672 657.476 1674.8C652.676 1677.6 650.276 1681.2 650.276 1685.6C650.276 1689.6 651.976 1692.6 655.376 1694.6C658.976 1696.6 663.676 1698.2 669.476 1699.4C675.276 1700.6 681.576 1701.7 688.376 1702.7C695.376 1703.5 702.376 1704.8 709.376 1706.6C716.376 1708.4 722.676 1711 728.276 1714.4C734.076 1717.6 738.776 1722.1 742.376 1727.9C745.976 1733.5 747.776 1740.9 747.776 1750.1C747.776 1760.1 744.776 1769 738.776 1776.8C732.776 1784.4 724.076 1790.4 712.676 1794.8C701.476 1799.2 687.776 1801.4 671.576 1801.4ZM830.951 1801.4C817.151 1801.4 803.851 1799.8 791.051 1796.6C778.451 1793.2 768.451 1789 761.051 1784L776.651 1750.4C784.051 1755 792.751 1758.8 802.751 1761.8C812.951 1764.6 822.951 1766 832.751 1766C843.551 1766 851.151 1764.7 855.551 1762.1C860.151 1759.5 862.451 1755.9 862.451 1751.3C862.451 1747.5 860.651 1744.7 857.051 1742.9C853.651 1740.9 849.051 1739.4 843.251 1738.4C837.451 1737.4 831.051 1736.4 824.051 1735.4C817.251 1734.4 810.351 1733.1 803.351 1731.5C796.351 1729.7 789.951 1727.1 784.151 1723.7C778.351 1720.3 773.651 1715.7 770.051 1709.9C766.651 1704.1 764.951 1696.6 764.951 1687.4C764.951 1677.2 767.851 1668.2 773.651 1660.4C779.651 1652.6 788.251 1646.5 799.451 1642.1C810.651 1637.5 824.051 1635.2 839.651 1635.2C850.651 1635.2 861.851 1636.4 873.251 1638.8C884.651 1641.2 894.151 1644.7 901.751 1649.3L886.151 1682.6C878.351 1678 870.451 1674.9 862.451 1673.3C854.651 1671.5 847.051 1670.6 839.651 1670.6C829.251 1670.6 821.651 1672 816.851 1674.8C812.051 1677.6 809.651 1681.2 809.651 1685.6C809.651 1689.6 811.351 1692.6 814.751 1694.6C818.351 1696.6 823.051 1698.2 828.851 1699.4C834.651 1700.6 840.951 1701.7 847.751 1702.7C854.751 1703.5 861.751 1704.8 868.751 1706.6C875.751 1708.4 882.051 1711 887.651 1714.4C893.451 1717.6 898.151 1722.1 901.751 1727.9C905.351 1733.5 907.151 1740.9 907.151 1750.1C907.151 1760.1 904.151 1769 898.151 1776.8C892.151 1784.4 883.451 1790.4 872.051 1794.8C860.851 1799.2 847.151 1801.4 830.951 1801.4ZM1012.83 1801.4C995.626 1801.4 980.326 1797.8 966.926 1790.6C953.726 1783.4 943.226 1773.6 935.426 1761.2C927.826 1748.6 924.026 1734.3 924.026 1718.3C924.026 1702.1 927.826 1687.8 935.426 1675.4C943.226 1662.8 953.726 1653 966.926 1646C980.326 1638.8 995.626 1635.2 1012.83 1635.2C1029.83 1635.2 1045.03 1638.8 1058.43 1646C1071.83 1653 1082.33 1662.7 1089.93 1675.1C1097.53 1687.5 1101.33 1701.9 1101.33 1718.3C1101.33 1734.3 1097.53 1748.6 1089.93 1761.2C1082.33 1773.6 1071.83 1783.4 1058.43 1790.6C1045.03 1797.8 1029.83 1801.4 1012.83 1801.4ZM1012.83 1763C1020.63 1763 1027.63 1761.2 1033.83 1757.6C1040.03 1754 1044.93 1748.9 1048.53 1742.3C1052.13 1735.5 1053.93 1727.5 1053.93 1718.3C1053.93 1708.9 1052.13 1700.9 1048.53 1694.3C1044.93 1687.7 1040.03 1682.6 1033.83 1679C1027.63 1675.4 1020.63 1673.6 1012.83 1673.6C1005.03 1673.6 998.026 1675.4 991.826 1679C985.626 1682.6 980.626 1687.7 976.826 1694.3C973.226 1700.9 971.426 1708.9 971.426 1718.3C971.426 1727.5 973.226 1735.5 976.826 1742.3C980.626 1748.9 985.626 1754 991.826 1757.6C998.026 1761.2 1005.03 1763 1012.83 1763ZM1322.27 1802.6C1305.67 1802.6 1290.37 1800 1276.37 1794.8C1262.57 1789.4 1250.47 1781.8 1240.07 1772C1229.87 1762.2 1221.87 1750.7 1216.07 1737.5C1210.47 1724.3 1207.67 1709.8 1207.67 1694C1207.67 1678.2 1210.47 1663.7 1216.07 1650.5C1221.87 1637.3 1229.97 1625.8 1240.37 1616C1250.77 1606.2 1262.97 1598.7 1276.97 1593.5C1290.97 1588.1 1306.37 1585.4 1323.17 1585.4C1341.77 1585.4 1358.47 1588.5 1373.27 1594.7C1388.27 1600.9 1400.87 1609.9 1411.07 1621.7L1379.87 1650.5C1372.27 1642.5 1363.97 1636.6 1354.97 1632.8C1345.97 1628.8 1336.17 1626.8 1325.57 1626.8C1315.37 1626.8 1306.07 1628.4 1297.67 1631.6C1289.27 1634.8 1281.97 1639.4 1275.77 1645.4C1269.77 1651.4 1265.07 1658.5 1261.67 1666.7C1258.47 1674.9 1256.87 1684 1256.87 1694C1256.87 1703.8 1258.47 1712.8 1261.67 1721C1265.07 1729.2 1269.77 1736.4 1275.77 1742.6C1281.97 1748.6 1289.17 1753.2 1297.37 1756.4C1305.77 1759.6 1314.97 1761.2 1324.97 1761.2C1334.57 1761.2 1343.87 1759.7 1352.87 1756.7C1362.07 1753.5 1370.97 1748.2 1379.57 1740.8L1407.17 1775.9C1395.77 1784.5 1382.47 1791.1 1367.27 1795.7C1352.27 1800.3 1337.27 1802.6 1322.27 1802.6ZM1362.77 1769.6V1690.7H1407.17V1775.9L1362.77 1769.6ZM1548.01 1799V1767.5L1545.01 1760.6V1704.2C1545.01 1694.2 1541.91 1686.4 1535.71 1680.8C1529.71 1675.2 1520.41 1672.4 1507.81 1672.4C1499.21 1672.4 1490.71 1673.8 1482.31 1676.6C1474.11 1679.2 1467.11 1682.8 1461.31 1687.4L1444.51 1654.7C1453.31 1648.5 1463.91 1643.7 1476.31 1640.3C1488.71 1636.9 1501.31 1635.2 1514.11 1635.2C1538.71 1635.2 1557.81 1641 1571.41 1652.6C1585.01 1664.2 1591.81 1682.3 1591.81 1706.9V1799H1548.01ZM1498.81 1801.4C1486.21 1801.4 1475.41 1799.3 1466.41 1795.1C1457.41 1790.7 1450.51 1784.8 1445.71 1777.4C1440.91 1770 1438.51 1761.7 1438.51 1752.5C1438.51 1742.9 1440.81 1734.5 1445.41 1727.3C1450.21 1720.1 1457.71 1714.5 1467.91 1710.5C1478.11 1706.3 1491.41 1704.2 1507.81 1704.2H1550.71V1731.5H1512.91C1501.91 1731.5 1494.31 1733.3 1490.11 1736.9C1486.11 1740.5 1484.11 1745 1484.11 1750.4C1484.11 1756.4 1486.41 1761.2 1491.01 1764.8C1495.81 1768.2 1502.31 1769.9 1510.51 1769.9C1518.31 1769.9 1525.31 1768.1 1531.51 1764.5C1537.71 1760.7 1542.21 1755.2 1545.01 1748L1552.21 1769.6C1548.81 1780 1542.61 1787.9 1533.61 1793.3C1524.61 1798.7 1513.01 1801.4 1498.81 1801.4ZM1840.87 1635.2C1853.67 1635.2 1864.97 1637.8 1874.77 1643C1884.77 1648 1892.57 1655.8 1898.17 1666.4C1903.97 1676.8 1906.87 1690.2 1906.87 1706.6V1799H1860.07V1713.8C1860.07 1700.8 1857.37 1691.2 1851.97 1685C1846.57 1678.8 1838.97 1675.7 1829.17 1675.7C1822.37 1675.7 1816.27 1677.3 1810.87 1680.5C1805.47 1683.5 1801.27 1688.1 1798.27 1694.3C1795.27 1700.5 1793.77 1708.4 1793.77 1718V1799H1746.97V1713.8C1746.97 1700.8 1744.27 1691.2 1738.87 1685C1733.67 1678.8 1726.17 1675.7 1716.37 1675.7C1709.57 1675.7 1703.47 1677.3 1698.07 1680.5C1692.67 1683.5 1688.47 1688.1 1685.47 1694.3C1682.47 1700.5 1680.97 1708.4 1680.97 1718V1799H1634.17V1637.6H1678.87V1681.7L1670.47 1668.8C1676.07 1657.8 1683.97 1649.5 1694.17 1643.9C1704.57 1638.1 1716.37 1635.2 1729.57 1635.2C1744.37 1635.2 1757.27 1639 1768.27 1646.6C1779.47 1654 1786.87 1665.4 1790.47 1680.8L1773.97 1676.3C1779.37 1663.7 1787.97 1653.7 1799.77 1646.3C1811.77 1638.9 1825.47 1635.2 1840.87 1635.2ZM2030.09 1801.4C2011.69 1801.4 1995.49 1797.8 1981.49 1790.6C1967.69 1783.4 1956.99 1773.6 1949.39 1761.2C1941.79 1748.6 1937.99 1734.3 1937.99 1718.3C1937.99 1702.1 1941.69 1687.8 1949.09 1675.4C1956.69 1662.8 1966.99 1653 1979.99 1646C1992.99 1638.8 2007.69 1635.2 2024.09 1635.2C2039.89 1635.2 2054.09 1638.6 2066.69 1645.4C2079.49 1652 2089.59 1661.6 2096.99 1674.2C2104.39 1686.6 2108.09 1701.5 2108.09 1718.9C2108.09 1720.7 2107.99 1722.8 2107.79 1725.2C2107.59 1727.4 2107.39 1729.5 2107.19 1731.5H1976.09V1704.2H2082.59L2064.59 1712.3C2064.59 1703.9 2062.89 1696.6 2059.49 1690.4C2056.09 1684.2 2051.39 1679.4 2045.39 1676C2039.39 1672.4 2032.39 1670.6 2024.39 1670.6C2016.39 1670.6 2009.29 1672.4 2003.09 1676C1997.09 1679.4 1992.39 1684.3 1988.99 1690.7C1985.59 1696.9 1983.89 1704.3 1983.89 1712.9V1720.1C1983.89 1728.9 1985.79 1736.7 1989.59 1743.5C1993.59 1750.1 1999.09 1755.2 2006.09 1758.8C2013.29 1762.2 2021.69 1763.9 2031.29 1763.9C2039.89 1763.9 2047.39 1762.6 2053.79 1760C2060.39 1757.4 2066.39 1753.5 2071.79 1748.3L2096.69 1775.3C2089.29 1783.7 2079.99 1790.2 2068.79 1794.8C2057.59 1799.2 2044.69 1801.4 2030.09 1801.4ZM2193.55 1801.4C2179.75 1801.4 2166.45 1799.8 2153.65 1796.6C2141.05 1793.2 2131.05 1789 2123.65 1784L2139.25 1750.4C2146.65 1755 2155.35 1758.8 2165.35 1761.8C2175.55 1764.6 2185.55 1766 2195.35 1766C2206.15 1766 2213.75 1764.7 2218.15 1762.1C2222.75 1759.5 2225.05 1755.9 2225.05 1751.3C2225.05 1747.5 2223.25 1744.7 2219.65 1742.9C2216.25 1740.9 2211.65 1739.4 2205.85 1738.4C2200.05 1737.4 2193.65 1736.4 2186.65 1735.4C2179.85 1734.4 2172.95 1733.1 2165.95 1731.5C2158.95 1729.7 2152.55 1727.1 2146.75 1723.7C2140.95 1720.3 2136.25 1715.7 2132.65 1709.9C2129.25 1704.1 2127.55 1696.6 2127.55 1687.4C2127.55 1677.2 2130.45 1668.2 2136.25 1660.4C2142.25 1652.6 2150.85 1646.5 2162.05 1642.1C2173.25 1637.5 2186.65 1635.2 2202.25 1635.2C2213.25 1635.2 2224.45 1636.4 2235.85 1638.8C2247.25 1641.2 2256.75 1644.7 2264.35 1649.3L2248.75 1682.6C2240.95 1678 2233.05 1674.9 2225.05 1673.3C2217.25 1671.5 2209.65 1670.6 2202.25 1670.6C2191.85 1670.6 2184.25 1672 2179.45 1674.8C2174.65 1677.6 2172.25 1681.2 2172.25 1685.6C2172.25 1689.6 2173.95 1692.6 2177.35 1694.6C2180.95 1696.6 2185.65 1698.2 2191.45 1699.4C2197.25 1700.6 2203.55 1701.7 2210.35 1702.7C2217.35 1703.5 2224.35 1704.8 2231.35 1706.6C2238.35 1708.4 2244.65 1711 2250.25 1714.4C2256.05 1717.6 2260.75 1722.1 2264.35 1727.9C2267.95 1733.5 2269.75 1740.9 2269.75 1750.1C2269.75 1760.1 2266.75 1769 2260.75 1776.8C2254.75 1784.4 2246.05 1790.4 2234.65 1794.8C2223.45 1799.2 2209.75 1801.4 2193.55 1801.4Z" fill="#001E2C"/>
<defs>
<linearGradient id="paint0_linear_16_39" x1="1175" y1="299" x2="1446" y2="128" gradientUnits="userSpaceOnUse">
<stop stop-color="#92ABB7"/>
<stop offset="1" stop-color="#ACC1CB"/>
</linearGradient>
<linearGradient id="paint1_linear_16_39" x1="1175" y1="299" x2="1446" y2="128" gradientUnits="userSpaceOnUse">
<stop stop-color="#92ABB7"/>
<stop offset="1" stop-color="#ACC1CB"/>
</linearGradient>
<linearGradient id="paint2_linear_16_39" x1="1122.31" y1="298.807" x2="851.307" y2="127.807" gradientUnits="userSpaceOnUse">
<stop stop-color="#92ABB7"/>
<stop offset="1" stop-color="#ACC1CB"/>
</linearGradient>
<linearGradient id="paint3_linear_16_39" x1="1122.31" y1="298.807" x2="851.307" y2="127.807" gradientUnits="userSpaceOnUse">
<stop stop-color="#92ABB7"/>
<stop offset="1" stop-color="#ACC1CB"/>
</linearGradient>
<linearGradient id="paint4_linear_16_39" x1="1632.56" y1="258.254" x2="1634.42" y2="361.257" gradientUnits="userSpaceOnUse">
<stop stop-color="#F9D800"/>
<stop offset="0.385" stop-color="#F4D401"/>
</linearGradient>
<linearGradient id="paint5_linear_16_39" x1="1632.56" y1="258.254" x2="1634.42" y2="361.257" gradientUnits="userSpaceOnUse">
<stop stop-color="#F9D800"/>
<stop offset="0.385" stop-color="#F4D401"/>
</linearGradient>
<linearGradient id="paint6_linear_16_39" x1="1632.56" y1="258.254" x2="1634.42" y2="361.257" gradientUnits="userSpaceOnUse">
<stop stop-color="#F9D800"/>
<stop offset="0.385" stop-color="#F4D401"/>
</linearGradient>
<linearGradient id="paint7_linear_16_39" x1="1632.56" y1="258.254" x2="1634.42" y2="361.257" gradientUnits="userSpaceOnUse">
<stop stop-color="#F9D800"/>
<stop offset="0.385" stop-color="#F4D401"/>
</linearGradient>
<linearGradient id="paint8_linear_16_39" x1="765.5" y1="257" x2="767.5" y2="361" gradientUnits="userSpaceOnUse">
<stop stop-color="#F9D800"/>
<stop offset="0.385" stop-color="#F4D401"/>
</linearGradient>
<linearGradient id="paint9_linear_16_39" x1="765.5" y1="257" x2="767.5" y2="361" gradientUnits="userSpaceOnUse">
<stop stop-color="#F9D800"/>
<stop offset="0.385" stop-color="#F4D401"/>
</linearGradient>
</defs>
</svg>
