<svg width="800" height="800" viewBox="0 0 800 800" fill="none" xmlns="http://www.w3.org/2000/svg">
<g clip-path="url(#clip0_68_69)">
<path d="M367.211 67.6062V373.767C367.211 377.389 370.145 380.325 373.769 380.325H793.339C796.961 380.325 799.897 377.391 799.897 373.767V6.55781C799.897 4.65312 799.07 2.84375 797.631 1.59843C796.194 0.353121 794.287 -0.203129 792.395 0.0687459L372.823 61.1172C369.6 61.5875 367.211 64.3516 367.211 67.6062Z" fill="#444444"/>
<path d="M321.314 734.289C322.891 734.289 324.425 733.722 325.627 732.673C327.053 731.428 327.872 729.625 327.872 727.731V426.23C327.872 422.608 324.938 419.672 321.314 419.672H6.79854C5.05947 419.672 3.39072 420.364 2.16104 421.592C0.931348 422.822 0.240723 424.491 0.240723 426.23L0.256348 684.63C0.256348 687.906 2.67666 690.683 5.92197 691.13L320.422 734.236C320.719 734.269 321.017 734.289 321.314 734.289Z" fill="#444444"/>
<path d="M6.84375 380.325H321.314C324.936 380.325 327.872 377.391 327.872 373.767V75.2281C327.872 73.3344 327.053 71.5344 325.63 70.289C324.205 69.0437 322.322 68.4719 320.434 68.7312L5.67656 111.475C2.42031 111.919 -0.00312198 114.697 3.01878e-06 117.98L0.285941 373.772C0.290628 377.392 3.22657 380.325 6.84375 380.325Z" fill="#444444"/>
<path d="M793.338 800C794.909 800 796.438 799.436 797.639 798.392C799.072 797.147 799.895 795.344 799.895 793.442L800 426.23C800 424.494 799.311 422.822 798.08 421.592C796.85 420.362 795.181 419.672 793.442 419.672H373.767C370.145 419.672 367.209 422.606 367.209 426.23V734.416C367.209 737.684 369.617 740.453 372.852 740.909L792.422 799.937C792.73 799.98 793.033 800 793.338 800Z" fill="#444444"/>
</g>
<defs>
<clipPath id="clip0_68_69">
<rect width="800" height="800" fill="white"/>
</clipPath>
</defs>
</svg>
